<svg width="400" height="400" viewBox="0 0 400 400" fill="none" xmlns="http://www.w3.org/2000/svg">
<mask id="mask0_2865_1113" style="mask-type:alpha" maskUnits="userSpaceOnUse" x="0" y="0" width="400" height="400">
<circle cx="200" cy="200" r="200" fill="#D9D9D9"/>
</mask>
<g mask="url(#mask0_2865_1113)">
<g clip-path="url(#clip0_2865_1113)">
<path d="M-100 0H500V400H-100V0Z" fill="white"/>
<path d="M-100 263.996H500V311.996H-100V263.996ZM-100 87.9961H500V135.996H-100V87.9961Z" fill="#DA121A"/>
<path d="M153.688 154.496V175.496H163.687V231.496H153.688V245.496H246.313V231.496H236.312V175.496H246.313V154.496H222V176.496H212V154.496H188V176.496H178V154.496H153.688ZM191 209.496H209V231.496H191V209.496Z" fill="black"/>
<path d="M26.8412 175L33.0472 194.098L53.1278 194.098L36.8827 205.902L43.0872 225L26.8412 213.198L10.5952 225L16.7998 205.902L0.554688 194.098L20.6353 194.098L26.8412 175Z" fill="#DA121A"/>
<path d="M89.4155 175L95.6214 194.098L115.702 194.098L99.4569 205.902L105.661 225L89.4155 213.198L73.1695 225L79.374 205.902L63.1289 194.098L83.2095 194.098L89.4155 175Z" fill="#DA121A"/>
<path d="M310.58 175L316.785 194.098L336.866 194.098L320.621 205.902L326.826 225L310.58 213.198L294.334 225L300.538 205.902L284.293 194.098L304.374 194.098L310.58 175Z" fill="#DA121A"/>
<path d="M373.154 175L379.36 194.098L399.44 194.098L383.195 205.902L389.4 225L373.154 213.198L356.908 225L363.112 205.902L346.867 194.098L366.948 194.098L373.154 175Z" fill="#DA121A"/>
</g>
</g>
<defs>
<clipPath id="clip0_2865_1113">
<rect width="600" height="400" fill="white" transform="translate(-100)"/>
</clipPath>
</defs>
</svg>
