<svg width="400" height="400" viewBox="0 0 400 400" fill="none" xmlns="http://www.w3.org/2000/svg">
<mask id="mask0_2865_1134" style="mask-type:alpha" maskUnits="userSpaceOnUse" x="0" y="0" width="400" height="400">
<circle cx="200" cy="200" r="200" fill="#D9D9D9"/>
</mask>
<g mask="url(#mask0_2865_1134)">
<g clip-path="url(#clip0_2865_1134)">
<path d="M-3 400V200H597V400H-3Z" fill="#078930"/>
<path d="M-3 200V0H596.999L597 200H-3Z" fill="#0F47AF"/>
<path d="M-3 164.424V217.227C17.5945 207.255 38.1907 207.497 58.7852 218.147C80.0568 229.147 101.326 229.147 122.598 218.147C143.869 207.146 165.142 207.146 186.414 218.147C207.686 229.147 228.957 229.147 250.229 218.147C271.5 207.146 292.771 207.146 314.043 218.147C324.679 223.647 337.315 226.397 347.951 226.397H597V173.596H345.951C335.315 173.596 324.679 170.844 314.043 165.344C292.771 154.344 271.5 154.344 250.229 165.344C228.957 176.344 207.686 176.344 186.414 165.344C165.142 154.344 143.869 154.344 122.598 165.344C101.326 176.344 80.0568 176.344 58.7852 165.344C48.1493 159.844 37.5128 157.096 26.877 157.096C16.9183 157.096 6.95864 159.602 -3 164.424Z" fill="#FCDD09"/>
<path d="M80.6914 100.473H100.691C103.738 100.473 106.191 102.926 106.191 105.973C106.191 109.02 103.738 111.473 100.691 111.473H80.6914C77.6444 111.473 75.1914 109.02 75.1914 105.973C75.1914 102.926 77.6444 100.473 80.6914 100.473Z" fill="white"/>
<path d="M87.4226 112.965C87.4226 112.965 87.3804 113.908 87.3725 114.332C87.2318 117.512 86.34 121.151 85.1422 124.159C83.0991 129.084 82.7284 132.116 84.7126 136.132C86.6967 140.147 90.6886 145.625 90.6886 145.625C90.6886 145.625 94.6811 140.147 96.6653 136.132C98.6494 132.116 98.2787 129.084 96.2356 124.159C95.0378 121.151 94.1463 117.512 94.0056 114.332C93.9977 113.908 93.9555 112.965 93.9555 112.965L87.4226 112.965Z" fill="white"/>
<path d="M95.4414 112.965C96.343 119.965 99.4869 128.571 104.556 132.919C112.077 138.529 118.594 129.692 116.949 123.11C114.854 124.449 111.31 124.236 108.975 123.424C107.34 122.824 105.877 121.586 104.217 119.603C101.968 116.707 100.966 112.977 98.084 112.965H95.4414Z" fill="white"/>
<path d="M85.9398 112.965C85.0383 119.965 81.8943 128.571 76.8251 132.919C69.3044 138.529 62.7872 129.692 64.4323 123.11C66.5271 124.449 70.0713 124.236 72.4066 123.424C74.0414 122.824 75.5042 121.586 77.1644 119.603C79.4135 116.707 80.4151 112.977 83.2972 112.965H85.9398Z" fill="white"/>
<path d="M90.6837 27.9727C90.6837 27.9727 72.0774 45.4876 72.0353 58.6328C72.0171 64.6446 74.5674 71.2656 80.1524 80.7949C86.4594 91.5562 87.0509 93.1048 87.0509 95.8789V98.9727H94.3165V95.8789C94.3165 93.1048 94.908 91.5562 101.215 80.7949C106.8 71.2656 109.35 64.6446 109.332 58.6328C109.29 45.4876 90.6837 27.9727 90.6837 27.9727Z" fill="white"/>
<path d="M65.5152 72.1192C73.8633 72.7237 77.9254 80.8769 80.5188 85.0331C84.7486 91.8599 85.5214 94.0241 85.5214 96.294V98.9781H82.8386C80.2719 98.9781 80.6083 99.1391 78.7753 96.1356C76.9423 93.1321 73.6842 90.5254 69.9183 90.3495C60.7872 89.9245 55.2578 100.196 55.2578 100.196C55.2578 100.196 53.7694 99.0324 52.3629 97.5743C46.1029 91.0843 45.6108 84.3614 51.024 78.4888C54.7612 74.4344 60.4198 72.0377 65.5152 72.1192Z" fill="white"/>
<path d="M115.858 72.1192C107.51 72.7237 103.448 80.8769 100.854 85.0331C96.6244 91.8599 95.8516 94.0241 95.8516 96.294V98.9781H98.5344C101.101 98.9781 100.765 99.1391 102.598 96.1356C104.431 93.1321 107.689 90.5254 111.455 90.3495C120.586 89.9245 126.115 100.196 126.115 100.196C126.115 100.196 127.604 99.0324 129.01 97.5743C135.27 91.0843 135.762 84.3614 130.349 78.4888C126.612 74.4344 120.953 72.0377 115.858 72.1192Z" fill="white"/>
</g>
</g>
<defs>
<clipPath id="clip0_2865_1134">
<rect width="600" height="400" fill="white" transform="translate(-3)"/>
</clipPath>
</defs>
</svg>
