<svg width="400" height="400" viewBox="0 0 400 400" fill="none" xmlns="http://www.w3.org/2000/svg">
<mask id="mask0_2865_1204" style="mask-type:alpha" maskUnits="userSpaceOnUse" x="0" y="0" width="400" height="400">
<circle cx="200" cy="200" r="200" fill="#D9D9D9"/>
</mask>
<g mask="url(#mask0_2865_1204)">
<g clip-path="url(#clip0_2865_1204)">
<path d="M530.778 0H-47.002V400H530.778V0Z" fill="#0155A5"/>
<path d="M-47.002 171.426V285.711L118.078 399.997H283.158L-47.002 171.426Z" fill="white"/>
<path d="M35.538 0H-47.002V57.1429L448.238 400H530.778V342.857L35.538 0Z" fill="white"/>
<path d="M200.617 0H365.697L530.777 114.286V228.571L200.617 0Z" fill="white"/>
<path d="M56.6228 357.85C48.1333 350.119 42.7385 339.569 41.4405 328.161C40.1425 316.752 43.0294 305.26 49.5652 295.82C53.1116 290.697 58.2934 287.017 63.9707 285.589C69.6479 284.161 75.3555 285.102 79.8378 288.205C83.4114 290.624 85.6691 294.702 86.1826 299.666C86.6961 304.63 85.4297 310.134 82.6237 315.134C82.1804 315.775 82.0096 316.565 82.1489 317.331C82.2883 318.097 82.7263 318.777 83.3666 319.22C84.0069 319.664 84.7971 319.834 85.5634 319.695C86.3296 319.556 87.0092 319.118 87.4525 318.477C91.1453 314.091 95.8514 310.968 100.678 309.701C105.505 308.435 110.117 309.112 113.639 311.606C118.122 314.709 121.012 319.72 121.673 325.536C122.335 331.353 120.714 337.498 117.168 342.621C110.632 352.062 100.892 358.809 89.7565 361.61C78.6211 364.411 66.8475 363.075 56.6228 357.85V357.85Z" fill="#EE3E34"/>
<path d="M285.677 433.018C277.188 425.287 271.793 414.737 270.495 403.329C269.197 391.92 272.084 380.428 278.62 370.987C282.166 365.865 287.348 362.185 293.025 360.757C298.703 359.329 304.41 360.27 308.892 363.373C312.466 365.792 314.724 369.87 315.237 374.834C315.751 379.798 314.484 385.302 311.678 390.302C311.235 390.943 311.064 391.733 311.204 392.499C311.343 393.265 311.781 393.945 312.421 394.388C313.062 394.832 313.852 395.002 314.618 394.863C315.384 394.724 316.064 394.286 316.507 393.645C320.2 389.259 324.906 386.136 329.733 384.869C334.56 383.603 339.172 384.28 342.694 386.774C347.176 389.877 350.066 394.888 350.728 400.704C351.39 406.521 349.769 412.666 346.223 417.789C339.687 427.23 329.947 433.977 318.811 436.778C307.676 439.579 295.902 438.243 285.677 433.018V433.018Z" fill="#EE3E34"/>
<path d="M-9.34012 182.452C-17.8296 174.721 -23.2244 164.171 -24.5224 152.762C-25.8204 141.354 -22.9334 129.862 -16.3977 120.421C-12.8513 115.298 -7.66946 111.618 -1.99224 110.19C3.68498 108.762 9.39256 109.703 13.8749 112.806C17.4485 115.226 19.7062 119.304 20.2197 124.268C20.7332 129.231 19.4668 134.735 16.6608 139.736C16.2175 140.376 16.0467 141.167 16.186 141.933C16.3254 142.699 16.7634 143.379 17.4037 143.822C18.044 144.265 18.8343 144.436 19.6005 144.297C20.3668 144.157 21.0463 143.719 21.4896 143.079C25.1824 138.692 29.8885 135.57 34.7153 134.303C39.5422 133.036 44.1541 133.714 47.6763 136.207C52.1587 139.31 55.0486 144.321 55.7104 150.138C56.3722 155.954 54.7516 162.1 51.2051 167.223C44.6693 176.663 34.929 183.411 23.7936 186.212C12.6582 189.013 0.884607 187.677 -9.34012 182.452V182.452Z" fill="#EE3E34"/>
<path d="M242.81 319.05C234.321 311.318 228.926 300.769 227.628 289.36C226.33 277.951 229.217 266.459 235.753 257.019C239.299 251.896 244.481 248.216 250.158 246.788C255.835 245.36 261.543 246.301 266.025 249.404C269.599 251.823 271.857 255.901 272.37 260.865C272.884 265.829 271.617 271.333 268.811 276.334C268.368 276.974 268.197 277.764 268.336 278.53C268.476 279.297 268.914 279.976 269.554 280.42C270.194 280.863 270.985 281.034 271.751 280.894C272.517 280.755 273.197 280.317 273.64 279.677C277.333 275.29 282.039 272.167 286.866 270.901C291.693 269.634 296.304 270.312 299.827 272.805C304.309 275.908 307.199 280.919 307.861 286.736C308.523 292.552 306.902 298.698 303.356 303.82C296.82 313.261 287.079 320.008 275.944 322.809C264.809 325.61 253.035 324.274 242.81 319.05V319.05Z" fill="#EE3E34"/>
</g>
</g>
<defs>
<clipPath id="clip0_2865_1204">
<rect width="577.78" height="400" fill="white" transform="translate(-47)"/>
</clipPath>
</defs>
</svg>
