<svg width="400" height="400" viewBox="0 0 400 400" fill="none" xmlns="http://www.w3.org/2000/svg">
<mask id="mask0_2865_988" style="mask-type:alpha" maskUnits="userSpaceOnUse" x="0" y="0" width="400" height="400">
<circle cx="200" cy="200" r="200" fill="#D9D9D9"/>
</mask>
<g mask="url(#mask0_2865_988)">
<g clip-path="url(#clip0_2865_988)">
<path d="M500 0H-100V400H500V0Z" fill="#F6C50A"/>
<path d="M500 0H-100V240H500V0Z" fill="#2D558E"/>
<path d="M500 0H-100V160H500V0Z" fill="#FDFDFC"/>
<path d="M214.121 28.0097C211.031 29.5267 213.871 33.8777 215.621 35.3157C216.961 36.7817 220.041 37.7327 218.921 40.5717C217.861 43.9617 215.801 49.3067 219.631 51.4987C229.751 57.1337 241.041 58.9707 251.531 63.6627C255.811 64.7857 259.901 67.6787 264.231 68.0517C268.581 65.2717 268.891 58.2257 272.711 54.8577C275.421 54.2887 278.631 56.9027 281.031 54.0937C285.381 51.7957 282.231 45.5207 278.161 47.8567C273.671 49.0557 269.091 49.2947 264.511 49.8407C264.391 54.0827 263.041 59.1417 259.241 60.4627C255.281 60.9747 252.421 56.4987 253.231 52.1747C252.841 48.3067 258.441 46.1157 255.231 42.6577C253.531 39.1517 251.281 33.2367 246.911 34.7927C243.251 35.8937 237.811 37.6357 238.181 43.2327C238.971 48.0867 234.501 52.0587 230.561 50.6697C227.081 50.1307 226.991 44.7727 228.341 41.9027C229.101 36.5517 223.091 34.7577 220.471 31.8837C218.401 30.6577 216.631 27.8127 214.121 28.0097ZM110.871 30.7577C108.363 31.3787 104.242 32.7547 104.32 36.4277C105.189 39.2907 108.672 37.1877 109.801 39.8957C112.596 44.3687 120.283 39.2367 117.252 34.4217C115.709 32.3147 113.36 30.5087 110.871 30.7577ZM143.814 32.7637C141.193 32.6787 141.176 35.9057 141.314 38.1077C138.961 40.7397 140.24 45.6457 143.514 46.2857C150.454 47.3077 150.814 32.1857 143.814 32.7637ZM121.794 36.6027C118.144 37.7277 116.492 43.5847 112.203 43.1017C108.712 42.5377 105.974 46.2447 106.666 50.1897C106.515 52.9487 109.664 56.0097 109.951 57.3657C107.206 55.7827 103.943 51.0177 100.604 53.9847C97.8881 55.7897 95.4121 60.7717 98.7081 63.3847C101.367 66.5497 100.408 71.3397 100.285 75.2927C102.126 75.9467 104.943 75.9487 106.291 76.9937C104.244 79.2347 100.451 83.9137 103.813 86.8957C107.196 88.1557 109.656 91.3907 110.214 95.5547C111.838 98.5667 118.046 93.7277 118.493 99.0327C119.943 104.1 123.486 108.96 123.127 114.44C122.177 117.69 118.816 118.71 116.501 116.82C113.565 116.06 113.558 120.71 115.281 122.32C117.636 126.12 121.883 126.78 125.342 128.05C126.664 135.98 126.088 144.42 127.688 152.26C129.762 155.14 132.046 150.71 133.112 148.88C136.176 143.35 139.599 137.59 145.254 135.51C147.574 134.01 151.894 134.05 151.614 129.84C151.444 124.87 152.054 120.05 153.474 115.47C152.344 109.81 148.034 105.6 145.824 100.42C143.242 90.3877 137.193 80.4637 139.644 69.5347C142.314 62.6337 149.834 58.7867 150.454 50.7787C149.914 45.8947 144.504 47.4037 141.709 46.3517C138.157 45.7997 138.001 39.5487 134.032 40.1137C130.191 40.6567 129.091 45.8437 128.551 49.4267C127.441 50.8117 128.015 46.6377 127.808 45.8717C128.194 41.8337 125.375 36.8767 121.794 36.6027ZM247.114 41.0737C248.884 41.1817 249.614 44.1107 247.694 45.0647C246.764 46.9407 245.304 46.7537 245.404 44.5197C245.314 43.0497 245.764 41.5397 247.114 41.0737ZM217.384 57.5177C212.724 58.3667 209.844 63.4387 205.524 65.4127C199.624 68.8307 193.084 71.3287 188.164 76.6017C185.524 79.9067 189.444 83.4737 191.124 85.8487C193.924 88.9067 192.564 93.9217 195.004 97.3197C195.974 99.5597 198.404 103.52 200.664 100.68C201.894 99.3877 202.564 96.8627 204.624 97.8227C210.954 97.5477 216.594 93.7687 222.564 92.0647C225.094 92.1017 227.114 95.0707 226.164 98.0387C225.674 102.08 226.034 106.75 224.654 110.36C217.494 111.34 209.924 109.81 203.104 112.5C201.204 111.86 198.304 110.38 197.324 113.42C196.244 116.94 194.864 121.29 196.234 124.93C198.454 127.71 201.844 128.68 204.884 127.22C206.784 127.01 209.964 126.63 211.344 127.37C204.734 129.31 197.964 130.82 191.224 132.04C184.664 134.38 177.424 132.68 171.134 129.93C167.484 128.44 164.584 122.27 168.214 118.89C170.244 116.51 168.204 113 165.694 112.78C159.954 110.65 154.684 116.42 153.514 122.64C151.544 126.51 155.714 130.69 155.204 134.51C146.914 135.54 138.115 140.9 135.515 150.73C134.355 155.83 132.42 161.91 134.576 166.96C136.299 169.21 138.805 167.27 140.001 165.37C145.084 160.52 152.084 161.22 157.864 163.64C158.794 163.84 160.774 163.54 159.354 165.11C153.074 172.82 153.644 185.5 157.854 194.29C159.044 196.77 161.874 195.43 162.094 192.87C164.224 184.12 171.764 177.99 179.284 177.41C177.554 182.04 176.594 186.97 176.914 192.08C177.724 199.39 173.274 205.79 174.084 213.02C174.564 216.08 177.484 214.25 178.274 212.32C184.654 203.2 196.074 203.94 203.914 197.3C206.294 195.7 208.744 193.22 210.684 191.41C214.194 195.21 217.694 200.27 223.034 199.87C229.614 200.13 236.414 201.11 242.914 200.09C244.964 197.97 241.234 195.88 240.224 194.18C236.684 191.85 237.114 186.42 239.174 183.1C240.864 180.51 239.354 177.18 236.884 176.32C233.074 174.67 232.184 169.84 229.684 166.68C226.844 164.85 223.984 168.51 220.994 167.98C214.534 168.75 207.574 168.34 201.374 169.73C200.674 162.6 206.274 156.19 204.924 149.01C203.294 145.61 199.734 149.03 198.294 150.93C193.224 157.89 184.864 159.97 177.294 160.63C177.624 154.67 178.054 147.23 182.454 143.43C184.274 142.09 182.434 145.52 182.024 146.17C180.794 149.44 178.554 153.51 179.984 157.06C182.724 158.79 186.134 156.35 189.004 155.86C192.694 155.12 195.854 152.62 197.494 148.66C199.244 146.24 199.394 142.65 201.074 140.35C203.554 140.63 204.454 144.62 205.504 146.85C207.754 152.28 206.034 158.03 204.694 163.3C204.934 167.42 209.834 166.43 212.304 166.61C218.564 166.75 225.254 165.46 230.054 160.55C232.354 165.07 233.594 171 237.774 173.98C240.484 175.9 244.424 177.92 247.474 176.03C249.504 172.65 244.714 170.68 243.904 167.79C242.644 162.56 247.814 159.51 250.164 155.95C251.874 153.31 255.604 149.78 253.794 146.17C250.594 142.38 244.964 138.56 245.564 132.65C248.084 133.84 247.614 137.59 249.914 139.06C253.184 143.28 258.454 143.64 262.924 142.36C265.394 140.56 268.164 137.31 267.894 133.66C266.544 130.12 262.034 135.09 261.104 130.52C260.084 127.36 262.714 121.36 258.714 120.29C255.094 119.29 249.894 116.85 249.614 111.76C250.304 111.83 251.414 114.5 252.504 115.29C256.364 120.23 263.314 119.97 267.314 115.4C269.034 113.95 272.384 110.05 269.194 108.29C267.174 108.12 264.824 108.55 263.864 105.85C262.124 101.46 266.334 97.3867 265.664 93.0247C263.614 89.8207 260.214 93.7237 257.894 94.4637C256.764 94.7007 259.194 92.3787 259.654 92.0207C263.684 89.4667 267.704 85.7467 268.134 80.0697C268.924 76.9637 269.704 70.8907 265.664 70.6477C261.974 72.0517 259.084 76.9007 255.604 77.8447C259.434 76.4577 259.964 68.5407 256.274 66.6777C254.764 66.5267 253.414 67.2877 252.544 65.4567C250.704 64.2877 248.264 65.2777 246.964 62.9707C244.274 61.4737 243.034 67.0367 240.364 64.8897C232.774 62.8597 225.434 59.2167 217.784 57.4967L217.384 57.5177ZM94.5641 64.0177C90.3741 65.2637 89.3031 72.3707 91.4111 76.1657C94.0151 77.7837 94.5351 72.8967 96.7601 72.3047C101.337 69.9517 99.2981 63.8467 94.5641 64.0177ZM220.504 64.8457C223.774 65.6487 227.084 67.0157 230.284 68.2047C227.264 67.5917 225.124 70.2667 222.694 71.6067C220.884 71.0287 219.584 68.4917 217.534 67.9427C217.174 67.1337 219.594 64.9927 220.504 64.8457ZM172.644 80.8767C163.864 81.4537 157.734 95.3207 163.834 103.36C169.084 110.49 177.994 111.75 185.644 111.23C195.464 109.79 205.464 108.82 215.214 107.46C217.424 107.22 217.344 103.33 215.024 103.54C204.004 102.61 192.734 103.97 181.844 103.11C178.484 101.87 173.544 95.9157 178.474 93.1337C180.564 93.1577 184.594 93.0357 183.924 89.4037C182.164 84.4217 177.344 80.5407 172.644 80.8767ZM104.564 89.2077C102.354 89.5997 101.229 92.7537 98.6891 91.9777C91.0451 93.0147 99.0771 103.27 103.738 100.16C107.933 99.7197 110.245 92.7737 106.685 89.7307C106.034 89.3487 105.315 89.0847 104.564 89.2077ZM148.784 174.33C142.321 176.27 138.928 184.23 132.994 187.48C127.481 191.44 122.868 199.25 115.845 198.93C111.725 198.18 110.838 192.28 110.251 188.33C109.925 182.98 107.503 175.23 101.843 175.64C97.9641 176.04 97.2241 181.01 95.8741 184.32C93.9551 187.46 88.7171 187.37 88.8731 192.13C88.8361 194.45 89.3001 197.33 86.9021 198.15C84.4451 199.67 81.9091 204.19 84.9321 206.54C87.4781 208.1 90.0751 209.85 91.0211 213.27C91.7591 215.48 93.6841 219.54 96.0991 217.32C96.8781 216.67 98.3831 214.65 99.0081 215.16C98.1411 217.19 94.2961 220.89 97.3191 222.62C102.117 223.26 107.467 222.78 111.19 227.2C113.486 229.33 115.481 225.76 115.037 223.21C114.946 222.37 114.967 218.4 116.032 220.83C116.276 224.88 117.999 230.74 122.17 230.64C124.945 229.35 126.897 225.29 130.334 226.48C133.022 227.62 137.242 227.39 137.786 223.32C138.798 218.47 133.474 217.82 131.461 215.01C130.712 214.05 129.513 212.27 130.466 211.06C131.521 212.8 132.505 214.83 134.576 215.49C138.24 218.31 143.282 216.43 146.344 220.42C148.384 222.29 146.074 224.75 146.434 227C148.904 230.01 152.434 225.74 153.514 223.05C156.044 217.21 148.454 212.09 151.134 206.28C152.734 203.81 152.114 208.38 152.404 209.51C153.184 214.15 155.804 218.05 156.854 222.57C158.484 225.38 161.254 222.44 161.604 220.07C164.154 213.43 164.544 203.94 171.024 200.83C175.154 200.34 174.724 194.14 174.914 190.62C174.424 187.52 176.524 183.83 174.914 181.11C172.194 179.57 169.354 183 167.534 185.11C164.034 189.9 162.904 196.67 160.124 201.7C156.164 195.67 153.664 188.25 153.064 180.66C152.354 178.22 151.844 173.76 148.784 174.33ZM89.1171 175.18C86.0751 175.52 81.9671 178.79 82.9611 182.75C84.7881 185.53 88.3261 183.22 90.6001 185.28C94.2691 186.41 98.6561 179.56 94.6731 176.82C93.0351 175.67 91.0421 175.06 89.1171 175.18ZM83.1481 208.03C78.0301 208.97 74.5461 216.64 76.5981 222.07C78.2851 224.59 80.6731 221.91 81.5911 220.02C83.7581 216.57 88.9161 219 90.3001 214.79C90.3151 210.98 86.2111 207.83 83.1481 208.03ZM141.634 221.99C138.743 222.85 139.34 229.49 142.685 227.81C144.584 226.64 144.294 221.44 141.634 221.99ZM101.317 223.97C97.4871 224.91 97.7471 231.61 100.116 234.29C101.339 236.48 104.311 237.06 105.259 234.26C106.368 231.68 108.742 228.72 107.774 225.69C105.946 224.26 103.459 224.14 101.317 223.97ZM128.533 228.16C125.23 228.09 122.359 233.19 125.361 236.01C127.318 238.12 131.19 241.49 133.525 238.45C134.238 235.16 133.022 231.17 130.973 228.83C130.262 228.3 129.374 228.08 128.533 228.16Z" fill="#E2401E" stroke="#FDFFFF" stroke-width="3.35196"/>
<path d="M246.215 64.202C246.625 64.776 245.055 65.77 244.215 65.431C243.215 65.03 245.175 62.751 246.215 64.202ZM238.225 62.915C237.805 61.65 238.285 61.075 239.755 61.075C240.515 61.075 240.835 61.477 240.695 62.283C240.445 63.806 238.675 64.259 238.225 62.915ZM233.275 61.014C233.055 60.599 233.185 59.902 233.565 59.466C234.315 58.593 236.055 59.478 236.475 60.951C236.775 61.993 233.835 62.051 233.275 61.014ZM228.215 58.643C228.215 58.063 228.745 57.6 229.415 57.6C230.075 57.6 230.615 58.063 230.615 58.643C230.615 59.222 230.075 59.685 229.415 59.685C228.745 59.685 228.215 59.222 228.215 58.643ZM223.135 57.637C222.605 56.648 223.275 55.515 224.395 55.515C224.915 55.515 225.215 56.003 225.105 56.674C224.875 58.07 223.675 58.654 223.135 57.637ZM218.395 55.728C217.715 54.945 217.985 54.125 218.915 54.125C219.405 54.125 219.815 54.419 219.815 54.779C219.815 55.655 218.875 56.283 218.395 55.728Z" fill="#E2401E"/>
<path d="M290.306 62.1403C284.676 61.6843 280.036 66.8443 277.696 72.2823C275.516 80.0153 278.006 88.4853 282.756 94.1233C286.346 98.4183 288.436 104.251 287.366 110.211C287.276 113.181 290.346 112.521 291.326 110.601C294.756 106.681 298.126 100.741 295.716 95.0513C293.946 88.3973 289.186 82.4023 289.676 75.1613C290.496 71.3603 294.306 71.3103 296.786 72.7833C303.976 77.0203 305.076 87.9353 304.276 96.3163C303.336 102.971 299.466 109.271 300.056 116.181C300.746 119.251 304.726 120.491 305.886 117.141C311.346 105.301 314.316 90.4203 310.586 77.2333C307.716 69.2503 301.356 61.6043 293.386 62.1183C292.366 62.1243 291.336 62.1023 290.306 62.1403ZM289.426 116.601C280.236 117.411 272.726 126.281 270.996 136.551C269.336 143.741 271.216 151.111 273.416 157.771C275.036 161.051 275.986 165.111 278.596 167.501C281.876 167.371 282.946 161.941 281.076 159.281C277.396 151.121 275.576 139.531 280.326 132.001C280.936 141.331 286.306 149.201 291.996 155.331C294.646 157.661 296.026 152.591 296.446 150.381C296.936 148.091 297.586 147.421 297.106 150.321C295.746 157.211 292.856 165.581 296.676 172.041C298.696 174.401 300.666 170.581 300.386 168.311C301.316 161.091 306.956 156.221 308.426 149.141C311.616 139.991 309.236 128.921 303.396 121.991C299.556 118.361 294.386 116.361 289.426 116.601ZM282.206 148.681C279.356 148.861 280.786 154.281 283.256 152.561C284.926 151.561 284.096 148.351 282.206 148.681ZM286.636 152.801C284.306 154.051 284.816 158.271 283.476 160.591C280.646 169.461 280.946 179.121 279.796 188.331C274.746 186.161 270.586 180.181 264.856 180.261C262.106 182.511 266.196 185.501 267.186 187.611C272.286 195.421 268.666 205.891 272.046 214.281C273.236 216.711 275.336 214.551 276.646 213.961C280.106 217.651 283.256 222.271 285.096 227.391C286.956 234.781 281.356 242.631 274.716 241.421C265.176 239.591 259.866 229.141 255.726 220.071C252.166 212.941 248.196 205.411 241.976 201.111C232.976 198.391 222.556 202.681 214.296 196.951C212.466 194.971 209.796 192.561 207.616 195.461C203.786 199.131 198.966 200.601 194.566 202.961C191.876 205.541 195.476 208.861 197.426 210.121C206.706 217.341 218.906 223.171 222.666 236.511C224.446 239.801 223.646 243.301 222.536 246.611C219.186 261.801 220.936 277.751 222.136 293.041C219.786 294.221 218.096 298.371 220.976 300.151C223.296 301.831 226.116 301.181 228.676 300.961C229.046 304.001 231.206 308.761 234.396 306.471C236.126 305.571 237.586 302.311 239.596 304.511C241.576 306.231 246.266 306.171 246.016 302.371C244.566 299.401 242.376 295.651 243.936 292.251C246.176 290.611 249.346 290.261 251.856 290.881C253.656 293.781 252.796 297.811 254.236 301.001C255.246 306.001 257.916 310.141 261.816 312.621C264.486 315.241 268.686 316.011 270.676 319.391C271.726 326.281 267.136 332.321 267.016 339.101C266.646 342.351 264.486 344.801 261.616 343.991C259.516 344.071 256.156 343.711 256.586 340.301C257.176 332.691 252.566 324.291 245.756 323.621C242.166 324.571 241.576 330.311 237.776 330.991C235.336 331.541 235.166 335.391 237.496 336.291C240.246 338.131 233.246 335.441 233.566 337.381C233.966 342.371 232.456 348.101 234.396 352.731C237.306 355.721 240.896 351.791 243.176 349.661C241.486 352.171 241.266 355.831 243.646 357.861C246.786 360.331 251.386 355.061 254.126 359.101C256.146 360.681 257.906 364.841 260.656 364.031C263.556 361.551 265.856 357.961 268.516 355.351C267.666 357.541 265.466 362.101 268.856 362.831C273.746 362.771 277.606 356.211 282.616 358.931C285.096 359.931 287.446 357.311 287.066 354.371C287.276 351.641 286.366 346.981 286.686 345.361C288.466 349.541 287.006 356.551 291.796 358.381C295.246 359.741 299.346 358.861 302.196 361.941C305.176 362.681 304.716 358.011 303.916 356.031C300.806 345.791 291.966 339.831 287.116 330.881C286.796 330.011 286.456 326.971 286.816 327.241C288.516 332.801 292.476 337.961 297.326 339.691C300.416 340.161 300.296 335.411 299.456 333.191C298.166 323.971 287.336 320.721 287.266 310.751C287.526 309.101 288.206 313.461 288.976 314.331C292.766 322.521 299.896 327.411 303.896 335.481C306.336 341.211 305.966 333.751 306.526 330.941C306.976 322.841 305.546 314.701 303.486 307.191C302.286 300.881 303.306 294.471 304.426 288.281C303.816 284.291 299.786 286.971 298.176 288.521C299.526 283.541 301.346 278.141 304.516 274.301C306.456 273.121 309.726 273.821 310.146 270.381C311.096 266.531 308.376 262.111 304.726 263.231C297.576 263.791 294.326 273.491 287.436 274.981C282.696 273.491 278.796 269.241 275.256 265.451C273.936 262.531 273.256 258.651 272.926 255.661C275.786 253.971 279.386 255.131 282.316 253.261C289.086 250.841 294.626 243.361 294.026 234.761C294.596 228.661 293.436 222.671 290.616 217.511C290.156 216.021 288.136 212.981 290.756 213.411C295.556 212.061 298.686 206.731 299.006 201.131C300.166 194.091 301.046 186.511 305.756 181.371C307.856 177.911 303.376 175.141 300.786 176.051C296.856 177.051 293.436 180.081 289.356 180.461C285.476 182.481 288.836 188.961 286.516 191.431C285.786 180.391 288.346 169.761 291.076 159.351C291.976 155.661 290.616 152.641 286.636 152.801ZM291.676 167.521C288.166 169.051 289.906 177.891 293.896 176.251C296.846 174.221 294.846 167.521 291.676 167.521ZM209.416 221.291C206.836 221.971 208.246 225.381 209.736 226.541C213.856 233.671 212.496 242.671 214.786 250.541C214.786 253.121 216.946 257.021 219.306 254.681C222.226 250.741 220.916 244.751 221.356 239.951C221.336 232.741 217.036 226.331 212.286 222.181C211.416 221.621 210.436 221.051 209.416 221.291ZM192.296 236.011C178.706 236.621 168.916 249.161 157.106 255.161C153.686 257.301 149.836 253.941 146.386 255.441C143.866 258.971 147.026 263.751 148.376 267.091C149.876 269.261 146.466 270.571 145.956 272.691C143.516 277.581 141.127 283.191 141.264 288.941C142.858 291.961 146.676 290.001 149.166 290.161C151.386 290.391 153.566 288.361 155.636 288.761C157.436 293.921 157.606 299.821 159.076 305.171C159.286 307.871 156.406 309.621 155.736 312.121C152.016 318.391 149.496 325.481 145.826 331.691C138.806 330.031 131.216 331.671 124.165 330.161C122.501 328.871 123.147 325.651 121.199 324.361C119.767 322.161 115.753 320.441 114.987 324.231C114.775 328.471 112.662 331.901 110.688 335.201C110.042 339.161 114.725 338.191 116.751 338.271C119.256 338.441 116.977 338.501 115.681 338.531C112.882 338.501 108.558 341.291 109.712 345.061C110.977 346.711 113.322 345.881 114.405 348.131C116.918 349.751 115.701 354.801 118.928 355.221C120.976 355.831 123.012 353.121 124.277 352.861C123.075 354.511 119.337 356.611 121.725 359.041C124.688 360.121 126.858 362.901 129.514 364.551C133.729 364.431 136.073 359.161 138.692 355.981C139.627 353.611 140.932 354.241 142.296 355.791C145.106 358.441 149.806 357.691 151.156 353.451C153.566 350.581 159.356 353.291 160.016 348.071C162.246 348.831 164.286 347.001 166.356 347.391C169.266 348.221 172.906 351.901 175.766 349.331C177.246 345.471 171.786 342.191 171.686 340.001C177.616 345.201 185.966 346.821 190.706 354.001C192.236 356.051 194.386 353.821 194.046 351.531C194.386 344.711 189.046 340.151 185.426 335.721C187.926 337.311 189.836 341.471 192.916 341.131C196.016 338.641 195.446 333.261 196.206 329.461C196.656 323.361 197.116 317.231 198.736 311.421C199.246 305.371 194.956 300.971 192.656 296.181C194.226 293.261 197.116 291.071 198.236 287.611C200.876 281.221 203.636 274.431 204.216 267.351C203.596 263.751 200.076 266.251 198.186 266.371C196.496 267.121 196.176 266.181 197.516 265.361C202.526 262.121 208.496 263.291 213.806 264.471C217.036 264.241 215.916 259.591 214.856 257.491C213.016 253.371 211.656 249.001 211.086 244.471C208.436 238.361 201.586 237.491 196.406 236.201C195.046 236.031 193.666 235.931 192.296 236.011ZM236.536 321.111C234.046 320.641 229.746 323.761 232.196 326.781C234.736 329.171 239.526 330.861 241.396 326.581C243.026 323.581 240.246 320.651 237.666 321.111C237.286 321.081 236.916 321.081 236.536 321.111ZM108.906 323.181C105.878 323.101 102.192 327.721 105.19 330.641C107.71 332.251 112.691 333.521 113.655 329.131C114.922 325.521 112.036 322.431 108.906 323.181ZM229.106 340.741C225.716 341.811 222.586 347.491 224.976 351.161C227.436 352.661 230.376 349.961 232.046 347.911C232.976 345.301 232.476 340.141 229.106 340.741ZM110.426 347.631C106.61 348.321 106.018 354.601 107.216 358.051C109.339 361.111 113.247 357.881 114.724 355.481C116.542 351.751 114.224 347.151 110.426 347.631ZM154.416 353.281C150.136 354.411 150.716 361.301 152.246 364.841C154.276 367.441 156.716 363.491 157.366 361.351C159.016 358.621 158.916 353.481 155.306 353.281C155.006 353.251 154.716 353.241 154.416 353.281ZM249.916 359.301C246.706 359.841 244.396 363.191 245.156 367.021C245.116 370.131 247.516 374.121 250.216 373.911C252.326 371.331 253.186 367.531 254.946 364.581C255.326 361.681 252.396 358.691 249.916 359.301ZM278.256 360.341C275.676 360.411 273.856 363.271 274.896 366.121C274.876 368.501 276.056 372.591 278.726 370.941C280.986 369.221 284.106 366.071 283.176 362.591C282.166 360.721 280.066 360.101 278.256 360.341ZM123.586 360.951C119.621 361.911 120.556 368.381 123.079 370.681C125.118 373.821 128.573 370.021 127.997 366.971C128.081 364.061 126.381 360.801 123.586 360.951Z" fill="#E2401E" stroke="#FDFFFF" stroke-width="3.35196"/>
</g>
</g>
<defs>
<clipPath id="clip0_2865_988">
<rect width="600" height="400" fill="white" transform="translate(-100)"/>
</clipPath>
</defs>
</svg>
