<svg width="400" height="400" viewBox="0 0 400 400" fill="none" xmlns="http://www.w3.org/2000/svg">
<mask id="mask0_2865_1247" style="mask-type:alpha" maskUnits="userSpaceOnUse" x="0" y="0" width="400" height="400">
<circle cx="200" cy="200" r="200" fill="#D9D9D9"/>
</mask>
<g mask="url(#mask0_2865_1247)">
<g clip-path="url(#clip0_2865_1247)">
<path d="M500 0H-100V400H500V0Z" fill="#EE1818"/>
<path d="M500 80.0039H-100V320.004H500V80.0039Z" fill="#FFD600"/>
<path d="M-150 160C-116.667 176.667 -83.3333 176.667 -50 160C-16.6667 143.333 16.6667 143.333 50 160C83.3333 176.667 116.667 176.667 150 160C183.333 143.333 216.667 143.333 250 160C283.333 176.667 316.667 176.667 350 160C383.333 143.333 416.667 143.333 450 160C483.333 176.667 516.667 176.667 550 160V240C516.667 256.667 483.333 256.667 450 240C416.667 223.333 383.333 223.333 350 240C316.667 256.667 283.333 256.667 250 240C216.667 223.333 183.333 223.333 150 240C116.667 256.667 83.3333 256.667 50 240C16.6667 223.333 -16.6667 223.333 -50 240C-83.3333 256.667 -116.667 256.667 -150 240V160Z" fill="#01429C"/>
</g>
</g>
<defs>
<clipPath id="clip0_2865_1247">
<rect width="600" height="400" fill="white" transform="translate(-100)"/>
</clipPath>
</defs>
</svg>
