<svg width="400" height="400" viewBox="0 0 400 400" fill="none" xmlns="http://www.w3.org/2000/svg">
<mask id="mask0_2865_1165" style="mask-type:alpha" maskUnits="userSpaceOnUse" x="0" y="0" width="400" height="400">
<circle cx="200" cy="200" r="200" fill="#D9D9D9"/>
</mask>
<g mask="url(#mask0_2865_1165)">
<g clip-path="url(#clip0_2865_1165)">
<path d="M500.668 0H-99.9297V400H500.668V0Z" fill="#FDFD00"/>
<path d="M253.096 41.5191C253.723 41.4756 254.209 41.8462 254.616 42.6076C256.103 45.3854 254.486 52.1238 251.238 56.6654C249.371 59.2758 249.235 59.6788 250.037 60.5694C251.753 62.4756 253.434 67.8488 253.434 71.4365C253.434 74.8563 253.485 74.9577 255.517 75.9222C258.283 77.2347 260.499 80.2345 260.998 83.3546C261.394 85.8306 260.572 86.9592 259.815 84.9875C259.302 83.6504 257.242 83.8943 256.174 85.4192C254.374 87.9896 255.226 96.5651 257.601 99.7773C259.095 101.798 259.13 102.105 257.882 102.105C256.141 102.105 253.584 104.451 252.571 106.985C251.367 109.994 251.745 112.205 253.847 114.473C255.056 115.778 255.247 116.346 254.729 117.082C254.089 117.992 253.737 118.726 250.637 125.359C248.915 129.044 246.397 131.329 243.505 131.872C241.632 132.223 241.422 132.473 241.422 134.237C241.422 136.897 240.109 139.855 237.574 142.889C236.412 144.281 234.853 146.485 234.121 147.788C232.622 150.455 231.827 150.8 231.794 148.801C231.781 148.058 230.826 146.369 229.673 145.048L227.571 142.645L226.088 144.447C223.462 147.636 222.203 151.07 222.203 155.014C222.203 159.543 223.509 161.64 226.951 162.671C229.314 163.379 230.343 163.165 234.365 161.095C235.142 160.695 234.863 165.706 233.99 167.795C232.95 170.283 230.465 172.095 226.82 173.013C225.274 173.402 224.005 173.936 224.005 174.195C224.005 174.455 225.21 176.621 226.689 179.019C229.787 184.045 231.747 189.051 233.614 196.699C235.244 203.374 237.451 207.114 244.2 214.68C248.131 219.087 249.629 220.37 250.468 220.104C252.064 219.598 255.845 221.729 262.893 227.086C269.684 232.246 272.404 233.343 277.233 232.848C284.653 232.088 289.548 225.932 288.663 218.433C287.793 211.064 282.443 204.741 270.926 197.488C262.046 191.895 255.792 185.812 252.514 179.582C250.153 175.094 250.13 175.052 250.131 168.171C250.131 162.641 250.348 160.857 251.219 159.256C252.232 157.394 252.246 157.079 251.369 154.507C249.357 148.601 250.894 142.258 256.005 135.438C261.78 127.732 262.134 126.963 262.086 121.924C262.058 118.959 261.695 116.771 261.035 115.506C259.778 113.095 259.801 112.915 261.148 112.915C262.272 112.915 267.828 116.315 267.867 117.026C267.879 117.242 268.54 118.216 269.331 119.184C270.526 120.646 270.926 120.821 271.677 120.198C272.174 119.785 272.753 118.622 272.972 117.626C273.313 116.073 273.584 115.869 274.83 116.181C276.944 116.712 282.461 114.924 284.102 113.178C285.196 112.014 285.556 110.833 285.735 107.942C285.946 104.535 285.813 103.978 284.121 101.654C283.1 100.253 282.263 98.9694 282.263 98.8013C282.263 97.9714 286.522 98.6801 289.282 99.965C292.125 101.289 294.02 103.22 296.414 107.247C296.884 108.037 297.844 108.339 300.074 108.373C303.639 108.428 306.067 107.289 307.244 105.014C308.217 103.131 308.385 97.5543 307.488 96.9995C306.17 96.185 306.905 94.8974 308.689 94.8974C311.613 94.8974 316.089 99.6839 317.379 104.188C318.326 107.496 318.327 108.065 317.454 111.602C316.356 116.052 313.459 120.352 309.89 122.825C307.492 124.487 307.467 124.541 307.844 127.386C308.438 131.862 307.733 134.247 305.048 136.827L302.664 139.117L304.203 140.543C307.093 143.258 308.369 147.821 306.906 150.134C306.43 150.887 306.004 150.822 303.978 149.683C298.633 146.68 292.813 148.452 285.247 155.37C278.823 161.245 277.061 162.434 272.653 163.948C269.424 165.057 267.975 165.225 264.301 164.924L259.872 164.567L260.247 168.546C260.75 173.93 263.589 178.704 267.98 181.534C270.494 183.155 270.851 182.862 270.851 179.244C270.851 175.047 272.658 171.209 274.661 171.174C274.945 171.169 275.019 171.849 274.811 172.675C274.289 174.755 276.084 180.006 278.284 182.829C279.291 184.122 282.832 187.189 286.148 189.642C289.463 192.096 293.35 195.231 294.781 196.605C297.369 199.089 299.68 202.777 299.68 204.413C299.68 205.303 301.614 205.88 306.287 206.384C308.656 206.639 309.267 206.436 311.241 204.789C313.12 203.221 313.494 202.547 313.494 200.641C313.494 199.35 313.098 198.019 312.593 197.6C312.101 197.192 311.829 196.644 311.992 196.38C312.499 195.56 315.969 197.207 317.473 198.989C320.084 202.083 319.125 208.168 315.427 211.958C314.731 212.672 314.889 212.973 316.459 213.967C318.358 215.169 318.878 216.141 317.548 215.994C316.595 215.888 316.408 216.647 316.835 218.921C317.021 219.916 316.833 221.538 316.422 222.525L315.69 224.327L315.427 222.825C315.021 220.344 312.984 218.621 310.434 218.621C307.725 218.621 306.287 219.877 306.287 222.262C306.287 223.825 306.49 224.027 308.126 224.027C311.742 224.027 313.885 226.323 313.193 229.47C312.729 231.584 312.192 231.703 311.392 229.882C310.384 227.592 308.989 227.961 306.718 231.121C305.058 233.432 303.931 234.308 301.519 235.175C299.147 236.028 298.541 236.507 298.873 237.221C299.467 238.497 299.345 241.143 298.498 245.029C297.788 248.28 297.88 250.976 298.76 253.006C299.603 254.948 297.951 254.108 294.068 250.603C289.382 246.373 287.182 245.648 278.997 245.648C275.539 245.648 271.322 245.354 269.631 244.991C267.941 244.629 266.458 244.43 266.328 244.56C266.198 244.69 266.458 245.509 266.91 246.38C267.362 247.251 267.916 248.766 268.13 249.74C268.667 252.186 271.535 255.253 273.31 255.277C274.735 255.295 274.736 255.314 273.554 256.234C272.644 256.942 271.37 257.097 268.299 256.891L264.245 256.628V258.936C264.245 261.174 264.319 261.264 266.272 261.264C271.235 261.264 276.161 264.392 277.871 268.621C278.837 271.012 279.417 271.236 282 270.254C282.891 269.915 285.916 269.578 288.719 269.503L293.824 269.372L296.058 266.763L298.31 264.135L298.986 266.05C299.528 267.606 299.429 268.504 298.479 271.005C297.84 272.687 296.589 274.827 295.701 275.753L294.087 277.442L296.283 279.864C297.489 281.198 298.479 282.808 298.479 283.449C298.479 284.089 298.749 284.783 299.079 284.988C299.41 285.192 299.68 286.125 299.68 287.052C299.68 287.979 300.213 289.398 300.862 290.224C301.512 291.05 301.89 291.881 301.707 292.063C301.524 292.246 299.911 292.248 298.122 292.063C294.51 291.691 293.806 292.541 296.058 294.578C298.385 296.684 300.821 305.708 299.061 305.708C298.719 305.708 297.802 305.292 297.034 304.789C295.759 303.953 295.521 303.977 294.218 305.033C292.985 306.031 292.804 306.67 292.886 309.706C292.982 313.294 294.25 317.184 295.945 319.09C297.227 320.532 296.249 321.446 292.942 321.887C290.818 322.17 290.332 322.467 290.164 323.651C289.796 326.256 290.708 329.136 292.567 331.253L294.406 333.336H291.76C289.737 333.336 288.503 332.883 286.542 331.44C284.848 330.194 283.231 329.531 281.775 329.488C279.71 329.428 279.562 329.547 279.56 331.234C279.559 332.225 279.339 333.371 279.072 333.786C278.128 335.252 274.713 336.606 271.152 336.921L267.548 337.24L267.754 339.53C268.317 345.992 262.305 349.819 255.236 347.506C252.216 346.519 249.83 346.9 249.83 348.37C249.83 349.303 248.783 349.03 248.385 347.994C248.185 347.472 248.029 346.423 248.029 345.648C248.029 344.034 245.237 341.541 243.975 342.026C243.01 342.396 240.19 341.044 239.057 339.68C238.037 338.451 235.508 338.481 234.121 339.736C233.077 340.681 233.014 340.625 233.014 338.666C233.014 337.532 233.374 336.071 233.821 335.419C234.267 334.768 234.634 332.944 234.628 331.365C234.62 329.372 235.004 327.978 235.885 326.786C237.378 324.766 237.124 324.327 234.421 324.327C233.32 324.327 232.413 324.057 232.413 323.726C232.413 322.691 234.762 320.723 235.998 320.723C236.647 320.723 238.095 319.809 239.207 318.696C242.24 315.664 244.805 315.008 248.085 316.425C249.538 317.053 251.607 318.536 252.683 319.729C255.02 322.318 257.021 322.944 260.303 322.075C261.644 321.719 263.467 321.563 264.357 321.737C265.752 322.008 266.252 321.656 267.961 319.241C270.982 314.971 272.58 310.272 272.616 305.539C272.658 299.963 271.173 297.054 267.454 295.461C264.956 294.39 264.486 294.369 261.936 295.141C260.401 295.606 257.248 296.847 254.935 297.9C251.442 299.491 250.171 299.763 247.409 299.571L244.087 299.346L242.511 301.861C241.287 303.826 240.029 304.816 236.824 306.328C231.803 308.694 230.611 309.688 230.611 311.489C230.611 312.554 230.366 312.788 229.56 312.503C226.577 311.445 224.045 307.063 224.023 302.93L224.005 300.453L221.039 300.171C219.406 300.015 217.403 299.446 216.591 298.914C214.677 297.66 212.913 293.097 213.475 290.862L213.888 289.192L214.695 291.087C215.649 293.353 217.181 294.297 219.951 294.297C224.146 294.297 225.727 290.002 223.761 283.955C221.174 276.001 220.406 273.086 219.688 268.471C218.813 262.843 218.656 253.941 219.35 250.078C219.749 247.861 219.645 247.488 218.355 246.643C217.56 246.122 215.093 245.399 212.894 245.048C197.885 242.65 186.053 255.195 187.687 271.756C188.184 276.795 188.762 278.074 190.54 278.099C192.134 278.122 193.532 279.112 194.482 280.896C196.435 284.564 194.609 287.298 185.773 293.94C181.537 297.125 180.665 299.068 182.413 301.41C184.207 303.812 185.286 304.273 187.349 303.494C190.288 302.384 189.49 303.839 186.411 305.202C183.077 306.676 180.4 306.339 177.777 304.132C175.603 302.302 174.393 302.451 172.71 304.714C171.711 306.055 171.48 307.176 171.565 310.044C171.675 313.756 171.207 314.003 169.726 311.057C169.351 310.312 168.741 309.602 168.374 309.481C167.41 309.163 165.722 312.03 164.208 316.519L162.894 320.423L161.918 318.096C161.382 316.817 160.942 315.093 160.942 314.267C160.942 313.003 160.796 312.889 160.041 313.516C159.548 313.926 158.324 315.702 157.32 317.458C154.031 323.205 147.759 327.917 143.374 327.93C142.483 327.933 142.367 328.301 142.68 330.258C143.159 333.251 142.231 334.912 139.433 336.132C138.21 336.666 136.682 337.942 136.017 338.967C134.327 341.569 132.714 341.792 132.714 339.417C132.714 337.898 132.27 337.341 130.049 336.039C128.584 335.18 126.855 333.562 126.201 332.454C125.037 330.48 124.959 330.453 122.41 331.009C120.978 331.321 118.517 331.999 116.948 332.51C113.739 333.556 111.246 333.243 108.277 331.44C106.373 330.284 106.345 330.275 105.18 331.44C104.013 332.608 103.99 332.611 103.679 331.422C103.506 330.763 103.676 328.756 104.054 326.955C104.736 323.705 104.732 323.669 102.965 322.225C101.011 320.628 99.1077 320.32 97.9917 321.437C96.901 322.527 97.0913 318.32 98.1981 316.857C98.6831 316.216 99.0803 315.114 99.0803 314.417C99.0803 313.72 99.3126 312.891 99.6058 312.578C99.899 312.264 100.338 311.406 100.563 310.663C100.895 309.566 100.727 309.312 99.7184 309.312C98.0522 309.312 98.1641 308.355 99.9999 306.741C100.832 306.009 102.251 304.719 103.153 303.869C106.474 300.741 108.184 300.041 112.237 300.228C113.815 300.3 118.299 304.594 118.299 306.027C118.299 307.263 120.809 307.717 124.962 307.247C127.672 306.941 129.787 307.152 133.54 308.092C138.023 309.215 138.714 309.246 140.578 308.467C141.715 307.992 143.089 307.121 143.637 306.515C145.199 304.789 146.938 300.245 147.41 296.662C147.913 292.835 149.257 288.057 150.469 285.795C152.309 282.36 150.696 281.911 146.377 284.65C143.553 286.441 139.992 287.702 137.819 287.671C136.716 287.656 136.74 287.544 138.119 286.452C138.945 285.797 140.033 284.945 140.54 284.537C141.541 283.731 143.753 280.458 143.431 280.258C143.322 280.19 141.873 279.792 140.221 279.376C136.872 278.531 134.527 276.879 136.674 276.879C138.612 276.879 141.475 273.297 142.924 269.072C143.902 266.219 144.925 264.577 146.715 262.953L149.174 260.72L147.691 260.156C145.057 259.149 143.825 257.193 143.825 254.038C143.825 250.432 145.742 248.04 148.592 248.069L150.431 248.088L148.78 249.327C145.724 251.607 147.432 257.06 151.201 257.06C152.46 257.06 156.738 253.363 156.738 252.274C156.738 251.973 158.196 248.615 159.985 244.822C167.459 228.976 173.689 222.188 184.966 217.57C188.506 216.121 196.608 214.934 201.426 215.168C204.334 215.309 204.391 215.287 204.936 213.216C205.24 212.06 205.933 210.628 206.475 210.025C207.395 209 207.357 208.848 205.968 207.754C205.151 207.11 202.274 205.52 199.568 204.226C194.22 201.666 191.534 198.91 186.899 191.162C185.667 189.104 184.307 187.414 183.877 187.409C183.448 187.403 182.31 187.791 181.343 188.291C179.488 189.25 172.353 190.249 172.353 189.548C172.353 189.322 172.907 188.556 173.573 187.84C174.24 187.125 175.066 185.486 175.413 184.199C177.278 177.27 171.517 184.403 168.562 192.683C167.698 195.103 165.927 198.995 164.639 201.316C162.467 205.233 162.282 205.415 161.918 203.963C161.406 201.922 160.219 201.977 159.29 204.075C158.884 204.994 157.072 207.494 155.255 209.631C153.438 211.768 151.937 213.854 151.933 214.267C151.928 214.68 151.663 215.018 151.332 215.018C151.002 215.018 150.732 213.684 150.732 212.052C150.732 210.42 150.441 208.907 150.094 208.692C149.746 208.478 146.165 211.514 142.136 215.43C136.604 220.807 134.178 222.754 132.188 223.407C130.226 224.051 129.347 224.748 128.772 226.11C127.581 228.932 124.174 231.854 121.34 232.491C118.736 233.076 114.484 232.36 113.776 231.215C113.177 230.246 111.352 230.554 110.21 231.816C108.7 233.484 108.089 232.823 108.089 229.488C108.089 227.905 107.795 225.761 107.432 224.721C106.9 223.195 106.431 222.825 105.049 222.825C103.865 222.825 102.675 222.147 101.201 220.629C99.1734 218.542 98.9954 218.474 97.4286 219.259C96.5218 219.714 95.5743 220.19 95.3265 220.31C94.5592 220.684 94.8337 218.403 95.777 216.594C96.2704 215.648 96.6779 213.84 96.6779 212.578C96.6779 209.567 97.5196 207.485 99.4369 205.708C101.277 204.003 100.902 203.006 98.4421 203.006C95.8141 203.006 96.3041 202.05 99.5307 200.866C101.1 200.29 102.654 199.49 102.984 199.102C104.116 197.77 106.21 197 108.69 197C111.734 197 113.089 197.672 116.254 200.716C118.289 202.674 119.15 203.09 121.209 203.118C125.991 203.184 130.118 198.995 135.66 188.422C139.789 180.548 141.029 178.628 144.651 174.665C146.343 172.813 147.729 171.168 147.729 171.005C147.729 170.842 147.188 170.577 146.528 170.404C145.202 170.057 144.879 168.771 146.115 168.771C146.543 168.771 147.85 167.758 149.024 166.519C150.768 164.678 151.33 163.399 152.158 159.5C152.715 156.877 153.456 154.403 153.791 154C154.207 153.499 154.185 153.126 153.716 152.837C153.326 152.596 151.945 153.435 150.525 154.789C145.711 159.378 140.962 161.196 137.5 159.762C135.762 159.043 135.065 157.961 136.336 157.961C136.681 157.961 138.264 156.757 139.846 155.277C143.001 152.325 145.682 147.751 145.12 146.286C144.923 145.774 143.066 144.534 140.991 143.527C136.664 141.428 135.514 140.768 132.901 138.891C130.263 136.997 129.711 137.174 129.711 139.942C129.711 142.428 129.509 142.904 126.332 147.863L124.456 150.791L123.461 148.332C122.918 146.975 121.33 144.35 119.932 142.495L117.399 139.117V132.322V125.509L114.508 123.032L111.618 120.573L109.816 122.3C108.229 123.82 107.561 124.034 104.298 124.045C102.256 124.053 99.9895 124.391 99.268 124.796C97.6504 125.705 94.4953 125.762 93.9564 124.89C93.7371 124.535 94.1497 123.599 94.8761 122.825L96.1899 121.418L94.6321 119.128C93.6365 117.663 93.0743 116.032 93.0743 114.586C93.0743 113.025 92.8029 112.315 92.2109 112.315C90.6103 112.315 87.2079 108.449 86.5052 105.84C85.8736 103.494 85.6722 103.306 83.8026 103.306C82.0429 103.306 81.8262 103.147 82.1134 102.048C82.3019 101.327 83.4179 100.361 84.7222 99.7961C87.2116 98.7171 90.2055 95.04 90.9159 92.1947C91.1627 91.2063 91.8105 89.8964 92.3611 89.2856C93.3047 88.2387 93.2706 88.0908 91.6854 86.8269C90.3673 85.7759 90.17 85.3518 90.7845 84.8749C92.3515 83.6587 93.7854 83.5094 95.7957 84.3494C97.5975 85.1022 98.0777 85.0928 99.7184 84.2743C100.975 83.6472 102.358 83.4769 103.941 83.73C106.479 84.1358 107.163 83.1589 105.387 81.6842C104.891 81.273 104.486 80.6978 104.486 80.4079C104.486 79.4507 107.907 79.8576 109.366 80.9898C110.153 81.6011 111.947 82.2502 113.363 82.435C116.371 82.8272 118.46 84.0733 119.932 86.3201C120.778 87.611 120.961 88.9944 120.833 93.3959C120.679 98.709 120.737 98.9614 122.579 101.504C123.624 102.947 125.305 104.892 126.332 105.84C128.621 107.949 134.572 110.857 137.819 111.451C139.14 111.694 142.113 112.665 144.425 113.61C148.306 115.195 148.844 115.281 151.445 114.623C153.812 114.025 154.654 114.068 156.738 114.886L159.234 115.862L160.135 113.629C161.322 110.746 163.072 108.898 166.047 107.341C170.175 105.181 178.976 105.766 186.467 108.711C191.471 110.678 200.654 113.516 202.027 113.516C204.158 113.516 207.789 111.813 207.789 110.813C207.789 110.393 205.901 108.91 203.584 107.51C199.997 105.342 198.815 104.943 195.626 104.807L191.873 104.638L192.004 102.03C192.259 96.7931 195.131 93.0956 198.948 93.0956C199.731 93.0956 200.952 92.42 201.67 91.5941C203.402 89.6015 204.236 89.6878 203.81 91.8194C203.295 94.39 204.438 94.5702 206.249 92.1947C207.129 91.0418 208.096 90.0926 208.389 90.0926C208.683 90.0926 209 91.0977 209.102 92.3261C209.442 96.3944 214 97.3302 216.948 93.9402C218.4 92.2702 219.95 87.8127 219.388 86.9019C218.949 86.1923 208.699 86.7326 206.587 87.5776C202.107 89.3703 195.418 90.7709 191.291 90.7871C185.826 90.8085 182.109 89.2422 179.298 85.7007C177.747 83.7469 177.486 82.8973 177.496 79.995C177.514 74.7558 180.179 71.2388 184.665 70.5543C187.57 70.1111 189.912 70.9144 191.891 73.0506C193.73 75.0345 193.811 76.7346 192.079 76.992C191.369 77.0976 190.244 77.9043 189.583 78.7938C188.446 80.3227 188.45 80.5041 189.395 81.947C191.16 84.6408 193.096 84.5713 207.188 81.3464C209.665 80.7794 213.449 80.1399 215.596 79.9387C217.743 79.7376 219.462 79.447 219.406 79.2818C219.351 79.1167 219.11 78.2247 218.881 77.3111C218.042 73.9682 213.359 72.1772 210.078 73.9327C209.123 74.4439 208.943 74.9741 209.215 76.3351C209.418 77.3505 209.309 78.0806 208.952 78.0806C207.98 78.0806 205.386 75.2285 205.386 74.1579C205.386 73.5562 204.986 73.2646 204.335 73.3884C203.609 73.5265 203.191 74.3238 202.984 75.9785L202.683 78.3809L201.032 76.748C200.115 75.8461 199.38 74.4744 199.38 73.6512C199.38 72.8085 198.609 71.3975 197.597 70.3854L195.814 68.6024L196.189 62.5964C196.522 57.1322 196.441 56.3827 195.27 54.4883C193.554 51.7116 193.611 49.5164 195.476 47.7878C197.491 45.921 199.485 45.6131 206.306 46.0611L212.049 46.4365L213.963 44.5784C216.715 41.9314 218.468 41.6796 223.554 43.227C225.947 43.955 228.99 44.8461 230.311 45.1977C231.632 45.5493 233.318 46.2085 234.065 46.6617C235.114 47.2985 235.722 47.3223 236.711 46.7931C237.478 46.3826 239.117 46.2692 240.803 46.4928C245.02 47.0522 247.33 46.348 249.849 43.7525C251.249 42.3101 252.291 41.5749 253.096 41.5191Z" fill="#F90000"/>
<path d="M248.393 347.999C248.192 347.477 248.028 346.415 248.028 345.64C248.028 344.026 245.24 341.531 243.977 342.016C243.013 342.386 240.184 341.044 239.052 339.679C238.032 338.451 235.498 338.478 234.112 339.733C233.068 340.678 233.013 340.625 233.013 338.665C233.013 337.532 233.379 336.071 233.826 335.419C234.272 334.768 234.633 332.943 234.626 331.364C234.618 329.371 235.003 327.97 235.884 326.778C237.377 324.758 237.117 324.325 234.415 324.325C233.314 324.325 232.413 324.054 232.413 323.724C232.413 322.689 234.761 320.721 235.996 320.721C236.646 320.721 238.088 319.811 239.2 318.698C242.233 315.665 244.809 315.006 248.089 316.423C249.542 317.051 251.612 318.541 252.688 319.734C255.025 322.323 257.023 322.934 260.305 322.065C261.646 321.709 263.471 321.561 264.362 321.734C265.756 322.006 266.256 321.66 267.965 319.245C270.986 314.976 272.586 310.265 272.622 305.532C272.664 299.955 271.175 297.051 267.457 295.457C264.958 294.386 264.481 294.358 261.931 295.13C260.395 295.595 257.247 296.837 254.935 297.89C251.442 299.481 250.169 299.766 247.406 299.573L244.082 299.342L242.511 301.864C241.288 303.829 240.033 304.814 236.827 306.326C231.807 308.692 230.611 309.685 230.611 311.486C230.611 312.551 230.365 312.788 229.56 312.503C226.577 311.445 224.039 307.062 224.017 302.93L224.004 300.453L221.035 300.168C219.402 300.011 217.402 299.448 216.59 298.915C214.676 297.662 212.91 293.102 213.472 290.867L213.894 289.189L214.696 291.094C215.65 293.359 217.187 294.295 219.956 294.295C224.151 294.295 225.734 290.002 223.768 283.955C221.181 276.001 220.414 273.083 219.697 268.469C218.821 262.841 218.652 253.93 219.346 250.067C219.745 247.85 219.636 247.479 218.346 246.633C217.551 246.112 215.1 245.398 212.901 245.047C197.892 242.649 186.054 255.184 187.688 271.744C188.185 276.783 188.764 278.072 190.542 278.097C192.136 278.12 193.527 279.108 194.477 280.892C196.431 284.56 194.605 287.295 185.769 293.937C181.533 297.122 180.656 299.069 182.405 301.411C184.198 303.813 185.289 304.272 187.352 303.493C190.291 302.384 189.485 303.832 186.405 305.194C183.071 306.669 180.408 306.342 177.785 304.135C175.61 302.305 174.4 302.44 172.717 304.703C171.718 306.045 171.475 307.168 171.559 310.036C171.669 313.748 171.212 314.004 169.731 311.059C169.356 310.314 168.749 309.606 168.382 309.485C167.418 309.167 165.719 312.027 164.205 316.517L162.889 320.421L161.915 318.095C161.38 316.816 160.941 315.094 160.941 314.268C160.941 313.004 160.799 312.884 160.044 313.511C159.551 313.92 158.326 315.691 157.322 317.446C154.033 323.194 147.751 327.911 143.367 327.925C142.475 327.928 142.367 328.293 142.68 330.251C143.159 333.243 142.239 334.913 139.441 336.133C138.218 336.667 136.674 337.941 136.009 338.965C134.319 341.568 132.713 341.784 132.713 339.409C132.713 337.89 132.272 337.33 130.05 336.028C128.585 335.169 126.851 333.56 126.197 332.451C125.033 330.477 124.953 330.447 122.404 331.003C120.972 331.316 118.517 331.989 116.949 332.5C113.739 333.546 111.239 333.24 108.269 331.437C106.365 330.281 106.337 330.281 105.172 331.446C104.004 332.614 103.993 332.613 103.682 331.424C103.51 330.766 103.678 328.752 104.056 326.951C104.738 323.701 104.729 323.663 102.963 322.219C101.008 320.622 99.1148 320.326 97.9988 321.442C96.9081 322.532 97.0912 318.316 98.1981 316.852C98.6831 316.211 99.0799 315.117 99.0799 314.42C99.0799 313.723 99.3197 312.897 99.613 312.583C99.9062 312.269 100.33 311.404 100.554 310.661C100.886 309.564 100.729 309.31 99.7209 309.31C98.0548 309.31 98.1556 308.35 99.9914 306.736C100.823 306.004 102.242 304.71 103.145 303.86C106.466 300.733 108.183 300.048 112.236 300.234C113.814 300.307 118.299 304.587 118.299 306.02C118.299 307.256 120.811 307.718 124.965 307.249C127.675 306.942 129.783 307.149 133.535 308.089C138.019 309.212 138.716 309.25 140.579 308.471C141.717 307.996 143.096 307.112 143.644 306.506C145.206 304.78 146.941 300.25 147.413 296.667C147.917 292.84 149.265 288.055 150.478 285.793C152.318 282.359 150.705 281.906 146.386 284.645C143.562 286.436 139.991 287.695 137.818 287.665C136.715 287.649 136.74 287.551 138.119 286.458C138.945 285.804 140.035 284.935 140.542 284.526C141.542 283.72 143.744 280.454 143.422 280.253C143.313 280.185 141.872 279.789 140.221 279.372C136.872 278.527 134.524 276.877 136.671 276.877C138.609 276.877 141.482 273.294 142.931 269.069C143.909 266.216 144.929 264.567 146.719 262.944L149.169 260.722L147.698 260.16C145.064 259.153 143.824 257.195 143.824 254.04C143.824 250.433 145.733 248.038 148.584 248.067L150.431 248.086L148.779 249.319C145.724 251.598 147.432 257.057 151.2 257.057C152.46 257.057 156.737 253.357 156.737 252.267C156.737 251.967 158.201 248.619 159.99 244.826C167.464 228.98 173.689 222.186 184.965 217.568C188.505 216.119 196.613 214.939 201.431 215.173C204.339 215.313 204.391 215.284 204.935 213.213C205.239 212.057 205.931 210.618 206.472 210.014C207.393 208.989 207.36 208.841 205.971 207.747C205.154 207.103 202.271 205.517 199.565 204.223C194.217 201.663 191.539 198.899 186.904 191.152C185.673 189.093 184.314 187.404 183.885 187.398C183.455 187.392 182.313 187.796 181.347 188.296C179.492 189.255 172.353 190.251 172.353 189.55C172.353 189.324 172.898 188.554 173.564 187.839C174.231 187.124 175.059 185.486 175.406 184.2C177.271 177.271 171.514 184.41 168.558 192.689C167.694 195.11 165.934 198.99 164.646 201.312C162.474 205.229 162.277 205.42 161.912 203.968C161.4 201.927 160.223 201.974 159.294 204.073C158.888 204.991 157.069 207.491 155.252 209.628C153.435 211.765 151.945 213.852 151.941 214.265C151.936 214.677 151.662 215.015 151.332 215.015C151.002 215.015 150.731 213.68 150.731 212.048C150.731 210.416 150.447 208.904 150.1 208.69C149.752 208.475 146.171 211.504 142.142 215.42C136.61 220.797 134.17 222.753 132.181 223.406C130.218 224.05 129.349 224.737 128.774 226.099C127.583 228.921 124.168 231.856 121.334 232.492C118.73 233.077 114.492 232.36 113.784 231.215C113.186 230.246 111.346 230.556 110.204 231.818C108.694 233.486 108.089 232.819 108.089 229.484C108.089 227.901 107.792 225.755 107.429 224.715C106.898 223.189 106.439 222.823 105.056 222.823C103.872 222.823 102.682 222.143 101.208 220.626C99.1802 218.538 98.9921 218.47 97.4253 219.255C96.5185 219.71 95.5739 220.181 95.3261 220.301C94.5588 220.675 94.837 218.407 95.7803 216.598C96.2737 215.652 96.6775 213.845 96.6775 212.583C96.6775 209.573 97.5112 207.491 99.4285 205.714C101.269 204.009 100.903 203.003 98.4438 203.003C95.8158 203.003 96.3037 202.039 99.5303 200.855C101.099 200.279 102.653 199.49 102.984 199.101C104.116 197.769 106.21 196.997 108.689 196.997C111.734 196.997 113.093 197.663 116.257 200.707C118.292 202.666 119.15 203.082 121.209 203.11C125.991 203.176 130.112 198.984 135.654 188.411C139.783 180.537 141.029 178.634 144.651 174.671C146.343 172.819 147.728 171.17 147.728 171.007C147.728 170.844 147.188 170.57 146.527 170.397C145.201 170.05 144.869 168.769 146.105 168.769C146.533 168.769 147.844 167.756 149.018 166.517C150.762 164.675 151.336 163.395 152.164 159.496C152.721 156.873 153.45 154.397 153.785 153.993C154.201 153.492 154.176 153.126 153.707 152.837C153.318 152.596 151.945 153.44 150.525 154.793C145.711 159.382 140.97 161.19 137.508 159.756C135.77 159.036 135.072 157.958 136.343 157.958C136.687 157.958 138.264 156.747 139.846 155.267C143.001 152.316 145.684 147.747 145.122 146.282C144.926 145.769 143.067 144.526 140.991 143.519C136.665 141.42 135.521 140.765 132.908 138.889C130.27 136.995 129.71 137.18 129.71 139.948C129.71 142.434 129.508 142.908 126.331 147.867L124.454 150.798L123.467 148.331C122.924 146.974 121.337 144.346 119.939 142.492L117.398 139.12V132.315V125.51L114.509 123.038L111.62 120.566L109.814 122.295C108.227 123.815 107.558 124.026 104.295 124.038C102.252 124.045 99.991 124.383 99.2695 124.788C97.6519 125.698 94.4861 125.753 93.9473 124.881C93.728 124.526 94.1429 123.603 94.8693 122.83L96.1899 121.424L94.6319 119.131C93.6363 117.666 93.0739 116.022 93.0739 114.576C93.0739 113.015 92.8077 112.313 92.2157 112.313C90.6151 112.313 87.2064 108.451 86.5038 105.841C85.8721 103.496 85.6673 103.304 83.7977 103.304C82.038 103.304 81.8179 103.139 82.1051 102.041C82.2936 101.32 83.4147 100.354 84.719 99.7889C87.2084 98.7099 90.2065 95.033 90.917 92.1878C91.1638 91.1994 91.8161 89.8909 92.3667 89.2801C93.3103 88.2333 93.2713 88.0926 91.6861 86.8287C90.368 85.7777 90.174 85.3562 90.7884 84.8793C92.3554 83.6631 93.783 83.513 95.7934 84.353C97.5951 85.1058 98.0728 85.0967 99.7134 84.2782C100.97 83.6511 102.352 83.4692 103.934 83.7223C106.472 84.1281 107.163 83.1566 105.386 81.6819C104.891 81.2707 104.485 80.6971 104.485 80.4072C104.485 79.45 107.9 79.8595 109.359 80.9917C110.147 81.603 111.95 82.2543 113.367 82.4391C116.374 82.8313 118.464 84.0623 119.936 86.3091C120.782 87.6 120.958 88.996 120.831 93.3976C120.677 98.7106 120.73 98.9589 122.572 101.502C123.617 102.944 125.313 104.9 126.341 105.847C128.629 107.956 134.572 110.859 137.818 111.454C139.14 111.696 142.113 112.667 144.425 113.612C148.306 115.197 148.846 115.274 151.447 114.617C153.814 114.019 154.663 114.061 156.746 114.879L159.227 115.854L160.142 113.633C161.329 110.75 163.071 108.892 166.047 107.335C170.174 105.174 178.975 105.768 186.467 108.713C191.47 110.68 200.656 113.514 202.029 113.514C204.16 113.514 207.788 111.812 207.788 110.812C207.788 110.392 205.892 108.902 203.575 107.502C199.987 105.335 198.806 104.933 195.617 104.798L191.872 104.638L192 102.019C192.255 96.7826 195.124 93.0934 198.941 93.0934C199.724 93.0934 200.952 92.4177 201.67 91.5919C203.402 89.5992 204.235 89.6878 203.809 91.8193C203.295 94.39 204.439 94.5621 206.25 92.1866C207.13 91.0337 208.089 90.0904 208.383 90.0904C208.677 90.0904 209.001 91.0954 209.103 92.3237C209.443 96.392 214.006 97.3337 216.953 93.9437C218.405 92.2737 219.944 87.8068 219.382 86.8961C218.943 86.1865 208.699 86.7304 206.587 87.5754C202.106 89.3681 195.414 90.7747 191.287 90.7909C185.822 90.8123 182.112 89.2341 179.3 85.6926C177.749 83.7388 177.48 82.8892 177.489 79.9869C177.507 74.7477 180.179 71.2334 184.665 70.549C187.57 70.1058 189.916 70.9187 191.895 73.0548C193.734 75.0387 193.814 76.7281 192.083 76.9855C191.373 77.0911 190.25 77.9052 189.589 78.7947C188.452 80.3236 188.44 80.4954 189.386 81.9383C191.151 84.6322 193.095 84.5671 207.187 81.3421C209.665 80.7752 213.449 80.1467 215.596 79.9456C217.743 79.7444 219.454 79.4447 219.399 79.2795C219.343 79.1144 219.11 78.2317 218.881 77.3181C218.042 73.9752 213.367 72.174 210.087 73.9295C209.132 74.4407 208.938 74.9709 209.211 76.3319C209.414 77.3473 209.303 78.0783 208.947 78.0783C207.975 78.0783 205.386 75.2283 205.386 74.1577C205.386 73.556 204.985 73.2617 204.335 73.3855C203.609 73.5236 203.191 74.3273 202.983 75.9821L202.683 78.3786L201.031 76.7543C200.114 75.8524 199.38 74.4705 199.38 73.6473C199.38 72.8047 198.611 71.3961 197.599 70.384L195.818 68.6032L196.184 62.5914C196.517 57.1273 196.433 56.3898 195.263 54.4954C193.546 51.7187 193.619 49.5213 195.484 47.7927C197.499 45.9259 199.488 45.6063 206.309 46.0544L212.045 46.4311L213.971 44.5786C216.722 41.9316 218.472 41.6861 223.558 43.2335C225.951 43.9614 228.989 44.8447 230.311 45.1963C231.632 45.5479 233.324 46.2064 234.07 46.6595C235.12 47.2963 235.718 47.328 236.707 46.7988C237.474 46.3883 239.113 46.2635 240.798 46.4871C245.015 47.0465 247.332 46.3463 249.851 43.7508C252.339 41.1865 253.682 40.863 254.614 42.6034C256.1 45.3812 254.478 52.1232 251.23 56.6648C249.363 59.2752 249.24 59.6782 250.042 60.5687C251.758 62.4749 253.434 67.8379 253.434 71.4255C253.434 74.8454 253.489 74.9647 255.521 75.9292C258.287 77.2418 260.491 80.2336 260.99 83.3537C261.386 85.8297 260.58 86.957 259.823 84.9853C259.31 83.6482 257.238 83.8942 256.17 85.4192C254.37 87.9896 255.221 96.5602 257.596 99.7724C259.091 101.793 259.128 102.102 257.881 102.102C256.139 102.102 253.586 104.451 252.572 106.984C251.368 109.994 251.745 112.212 253.847 114.48C255.056 115.785 255.245 116.344 254.727 117.08C254.087 117.99 253.728 118.715 250.628 125.348C248.907 129.033 246.397 131.333 243.506 131.875C241.632 132.227 241.422 132.464 241.422 134.228C241.422 136.888 240.104 139.848 237.569 142.882C236.406 144.273 234.856 146.478 234.124 147.781C232.625 150.448 231.823 150.798 231.789 148.799C231.777 148.056 230.823 146.367 229.67 145.045L227.573 142.643L226.09 144.445C223.464 147.634 222.202 151.062 222.202 155.006C222.202 159.535 223.508 161.644 226.951 162.675C229.314 163.383 230.342 163.163 234.365 161.093C235.141 160.693 234.855 165.709 233.982 167.798C232.943 170.286 230.459 172.091 226.815 173.009C225.269 173.398 224.004 173.929 224.004 174.189C224.004 174.449 225.214 176.623 226.692 179.021C229.791 184.047 231.751 189.049 233.618 196.697C235.247 203.372 237.444 207.106 244.193 214.672C248.125 219.079 249.621 220.377 250.46 220.111C252.056 219.605 255.852 221.735 262.901 227.092C269.691 232.252 272.41 233.344 277.239 232.85C284.66 232.089 289.541 225.92 288.656 218.422C287.786 211.053 282.44 204.742 270.924 197.489C262.044 191.897 255.785 185.81 252.507 179.58C250.145 175.092 250.136 175.05 250.137 168.168C250.137 162.638 250.354 160.863 251.225 159.262C252.238 157.4 252.248 157.072 251.372 154.5C249.359 148.594 250.902 142.256 256.014 135.436C261.789 127.73 262.134 126.96 262.087 121.922C262.059 118.957 261.702 116.761 261.042 115.496C259.785 113.085 259.792 112.913 261.138 112.913C262.263 112.913 267.831 116.313 267.869 117.024C267.881 117.24 268.538 118.21 269.33 119.177C270.524 120.639 270.921 120.81 271.672 120.187C272.169 119.774 272.754 118.622 272.973 117.626C273.314 116.073 273.578 115.867 274.823 116.18C276.938 116.711 282.458 114.924 284.098 113.177C285.192 112.013 285.563 110.83 285.742 107.939C285.953 104.532 285.81 103.981 284.118 101.657C283.097 100.256 282.262 98.9723 282.262 98.8043C282.262 97.9744 286.524 98.677 289.283 99.9619C292.127 101.286 294.018 103.218 296.413 107.245C296.882 108.035 297.844 108.328 300.074 108.362C303.638 108.417 306.062 107.282 307.238 105.006C308.212 103.124 308.385 97.552 307.487 96.9973C306.169 96.1828 306.906 94.8952 308.691 94.8952C311.615 94.8952 316.091 99.6796 317.381 104.184C318.328 107.492 318.334 108.06 317.462 111.597C316.363 116.047 313.467 120.344 309.899 122.817C307.501 124.479 307.474 124.538 307.852 127.383C308.445 131.858 307.736 134.251 305.051 136.831L302.67 139.119L304.194 140.55C307.083 143.264 308.375 147.817 306.912 150.13C306.436 150.883 306.012 150.818 303.987 149.68C298.642 146.676 292.815 148.443 285.248 155.361C278.824 161.236 277.06 162.439 272.653 163.952C269.423 165.062 267.982 165.23 264.308 164.929L259.866 164.565L260.238 168.539C260.74 173.923 263.587 178.702 267.977 181.532C270.491 183.153 270.851 182.867 270.851 179.25C270.851 175.052 272.666 171.216 274.67 171.181C274.953 171.176 275.016 171.848 274.808 172.674C274.286 174.754 276.084 180.008 278.284 182.831C279.292 184.124 282.829 187.189 286.144 189.642C289.46 192.096 293.343 195.227 294.774 196.601C297.362 199.085 299.68 202.776 299.68 204.413C299.68 205.303 301.614 205.88 306.286 206.384C308.655 206.639 309.267 206.443 311.241 204.795C313.12 203.228 313.493 202.537 313.493 200.631C313.493 199.34 313.104 198.023 312.599 197.603C312.107 197.195 311.838 196.645 312.001 196.382C312.508 195.562 315.962 197.214 317.466 198.995C320.077 202.09 319.119 208.162 315.421 211.952C314.725 212.666 314.88 212.969 316.45 213.963C318.348 215.165 318.878 216.147 317.547 216C316.594 215.894 316.411 216.651 316.837 218.925C317.024 219.92 316.84 221.541 316.429 222.529L315.681 224.325L315.436 222.823C315.029 220.341 312.978 218.619 310.429 218.619C307.719 218.619 306.286 219.88 306.286 222.265C306.286 223.828 306.492 224.024 308.127 224.024C311.744 224.024 313.876 226.318 313.185 229.465C312.721 231.579 312.184 231.704 311.384 229.884C310.376 227.593 308.994 227.96 306.724 231.121C305.063 233.431 303.937 234.311 301.525 235.178C299.152 236.031 298.544 236.498 298.877 237.212C299.47 238.488 299.34 241.138 298.492 245.024C297.783 248.276 297.871 250.974 298.751 253.003C299.594 254.946 297.958 254.105 294.076 250.601C289.39 246.371 287.183 245.646 278.998 245.646C275.541 245.646 271.329 245.349 269.638 244.987C267.947 244.624 266.458 244.434 266.328 244.564C266.198 244.694 266.461 245.513 266.913 246.384C267.365 247.255 267.91 248.764 268.123 249.737C268.661 252.183 271.532 255.251 273.307 255.275C274.732 255.293 274.736 255.309 273.554 256.228C272.644 256.936 271.37 257.096 268.298 256.89L264.244 256.617V258.939C264.244 261.176 264.319 261.262 266.271 261.262C271.234 261.262 276.169 264.39 277.879 268.619C278.845 271.009 279.419 271.237 282.002 270.255C282.892 269.917 285.915 269.579 288.718 269.505L293.815 269.37L296.067 266.755L298.318 264.141L298.981 266.044C299.524 267.6 299.433 268.504 298.483 271.005C297.844 272.687 296.595 274.821 295.707 275.748L294.093 277.432L296.286 279.859C297.492 281.194 298.478 282.81 298.478 283.45C298.478 284.09 298.749 284.781 299.079 284.985C299.409 285.189 299.68 286.115 299.68 287.042C299.68 287.969 300.211 289.403 300.861 290.229C301.511 291.055 301.893 291.881 301.711 292.063C301.528 292.246 299.915 292.244 298.127 292.06C294.515 291.687 293.812 292.546 296.063 294.583C298.39 296.689 300.818 305.706 299.058 305.706C298.716 305.706 297.808 305.294 297.04 304.791C295.765 303.956 295.519 303.976 294.216 305.032C292.983 306.03 292.802 306.664 292.883 309.7C292.979 313.288 294.247 317.177 295.941 319.084C297.223 320.526 296.242 321.439 292.935 321.88C290.811 322.164 290.336 322.468 290.168 323.653C289.8 326.257 290.706 329.128 292.564 331.244L294.399 333.334H291.752C289.73 333.334 288.5 332.889 286.539 331.446C284.845 330.2 283.222 329.537 281.766 329.494C279.701 329.434 279.559 329.545 279.557 331.231C279.556 332.222 279.336 333.373 279.069 333.788C278.125 335.254 274.712 336.603 271.151 336.919L267.548 337.238L267.747 339.53C268.31 345.992 262.31 349.819 255.241 347.506C252.221 346.519 249.83 346.9 249.83 348.37C249.83 349.303 248.79 349.035 248.393 347.999ZM262.837 343.204C264.392 341.649 264.432 341.106 263.288 337.089C262.96 335.936 263.285 335.567 265.526 334.55C266.968 333.895 269.275 333.354 270.652 333.347C274.255 333.328 274.966 332.891 275.673 330.267C276.034 328.925 276.936 327.511 277.784 326.955C279.266 325.984 283.036 325.719 285.275 326.43C286.337 326.767 286.467 326.527 286.469 324.215C286.471 321.641 288.262 317.718 289.435 317.718C289.799 317.718 289.884 315.482 289.659 311.799C289.346 306.661 289.449 305.625 290.435 303.948C291.137 302.756 292.208 301.888 293.236 301.682C295.431 301.24 295.699 300.671 294.656 298.667C293.566 296.57 291.4 294.526 289.542 293.838L288.114 293.31L289.989 291.176C291.029 289.99 292.666 288.88 293.669 288.68C295.258 288.362 295.475 288.069 295.475 286.248C295.475 283.66 293.118 280.711 289.894 279.268L287.567 278.226L290.32 276.248C291.834 275.161 293.073 274.047 293.073 273.772C293.073 273.498 290.762 273.274 287.938 273.274C282.291 273.274 280.612 273.861 277.796 276.824C276.825 277.844 275.879 278.679 275.693 278.678C275.508 278.678 275.351 276.988 275.346 274.923C275.33 268.41 272.066 265.043 266.01 265.295C264.504 265.357 262.602 265.663 261.783 265.975L260.295 266.54L260.296 260.147C260.296 256.631 260.088 252.72 259.833 251.456L259.368 249.157L261.645 250.705C262.898 251.556 264.13 252.253 264.384 252.253C267.774 252.253 254.398 231.397 242.619 218.319C233.629 208.336 230.543 203.043 229.628 196.038C229.417 194.418 229.042 192.823 228.796 192.493C228.549 192.162 228.149 190.964 227.906 189.831C226.79 184.618 219.663 173.746 215.829 171.407C214.688 170.711 213.11 169.537 212.324 168.798L210.893 167.454L209.982 168.862C209.481 169.637 208.889 171.011 208.666 171.917C208.444 172.822 207.277 174.658 206.073 175.997L203.884 178.432L200.281 176.551C198.299 175.516 196.221 174.262 195.664 173.763C194.397 172.628 193.632 173.073 193.171 175.213C192.839 176.753 190.383 181.22 188.283 184.105C187.459 185.237 187.652 185.722 190.928 190.712C195.284 197.346 196.658 198.649 202.514 201.693C209.337 205.24 212.358 207.626 215.374 211.853C222.188 221.401 224.263 232.005 222.923 250.422C222.172 260.738 222.896 269.739 224.959 275.745C228.439 285.876 228.85 291.353 226.366 294.511C224.843 296.447 225.685 296.956 227.946 295.466C228.916 294.826 230.437 294.301 231.326 294.299C232.215 294.296 233.124 294.001 233.346 293.642C234.139 292.358 234.877 294.053 234.247 295.711C233.828 296.814 233.056 297.439 231.804 297.69C229.225 298.205 227.608 300.502 227.608 303.649C227.608 306.807 228.311 307.341 230.465 305.82C231.371 305.18 233.329 304.103 234.815 303.428C238.756 301.636 240.897 299.139 241.261 295.908L241.563 293.225L243.678 294.661C247.183 297.039 250.752 296.398 259.632 291.795C261.351 290.905 267.355 291.115 269.381 292.138C271.742 293.329 273.416 295.162 275.07 298.368C276.233 300.62 276.365 301.628 276.135 306.476C275.896 311.513 275.649 312.452 273.395 316.888C272.032 319.569 270.112 322.569 269.128 323.553C267.474 325.207 266.919 325.369 261.784 325.702C255.442 326.113 252.258 325.136 249.729 322.004C247.958 319.81 245.917 318.746 244.402 319.227C243.012 319.668 241.898 321.502 242.334 322.629C242.642 323.426 250.306 327.328 251.563 327.328C252.439 327.328 252.416 328.105 251.512 329.009C250.413 330.108 247.755 329.873 244.746 328.411C241.584 326.875 239.182 327.327 238.341 329.615C237.938 330.712 238.142 331.289 239.321 332.381C240.14 333.14 241.222 334.746 241.725 335.95C242.822 338.576 244.703 338.902 245.732 336.644C246.613 334.711 251.791 332.132 254.794 332.132C256.828 332.132 257.097 332.293 256.929 333.413C256.785 334.37 255.84 335.015 253.191 335.966C247.662 337.949 247.14 340.523 252.094 341.378C253.326 341.591 255.145 342.434 256.136 343.252C258.477 345.184 260.874 345.166 262.837 343.204ZM138.992 331.688C139.183 331.189 138.659 329.296 137.828 327.481C135.954 323.387 135.819 320.721 137.485 320.721C138.169 320.721 138.981 321.407 139.442 322.373C140.088 323.726 140.682 324.057 142.738 324.207C147.114 324.526 150.946 321.354 155.523 313.623C158.804 308.082 163.344 304.387 163.344 307.258C163.344 308.788 164.716 307.908 166.537 305.21C167.467 303.831 168.6 302.703 169.055 302.703C169.51 302.703 170.235 302.205 170.667 301.597C171.744 300.079 173.747 299.099 175.77 299.099C177.111 299.099 177.638 298.692 178.296 297.147C179.412 294.528 181.464 292.389 186.332 288.773C191.003 285.303 191.864 284.113 190.78 282.63C190.197 281.833 189.707 281.736 188.532 282.183C187.134 282.714 186.946 282.559 185.847 279.966C184.854 277.623 184.665 275.787 184.666 268.469C184.668 260.177 184.748 259.591 186.348 256.223C189.478 249.636 196.345 243.788 203.627 241.512C206.203 240.706 212.87 240.626 214.286 241.383C214.843 241.682 216.244 242.02 217.399 242.134C219.321 242.325 219.516 242.197 219.696 240.63C219.888 238.945 219.853 238.925 217.498 239.323C214.794 239.78 212.565 238.887 210.267 236.427C208.936 235.001 208.87 234.606 209.263 230.407C209.614 226.66 209.493 225.48 208.533 223.317C206.7 219.181 206.102 218.918 198.537 218.925C191.245 218.932 187.039 220.016 181.061 223.431C172.964 228.058 169.26 233.335 159.478 254.19C158.008 257.325 156.028 259.573 154.155 260.235C153.636 260.419 153.738 261.018 154.519 262.377L155.604 264.265H153.088C150.982 264.265 150.244 264.613 148.55 266.409C147.437 267.589 146.527 268.951 146.527 269.436C146.527 269.921 145.987 271.378 145.326 272.673C143.628 276.001 143.749 276.401 146.309 275.921L148.493 275.511L148.085 277.689L147.676 279.867L151.156 279.516C154.882 279.141 157.938 279.927 157.938 281.262C157.938 281.708 157.236 282.728 156.379 283.529C153.507 286.209 152.255 289.506 150.692 298.499C149.601 304.778 146.726 309.425 142.686 311.44C140.404 312.579 136.1 312.536 132.713 311.342C130.611 310.601 128.783 310.477 124.48 310.785C118.053 311.244 117.14 310.916 115.19 307.448C113.366 304.202 111.061 302.966 108.822 304.034C106.685 305.054 106.224 307.817 108.093 308.41C108.795 308.633 110.259 309.596 111.347 310.551C112.434 311.507 114.376 312.632 115.662 313.052C117.39 313.616 118.051 314.188 118.201 315.247C118.396 316.626 118.29 316.669 115.363 316.387C112.837 316.145 111.863 315.672 109.618 313.603C108.131 312.233 106.706 311.117 106.451 311.125C106.195 311.132 105.366 311.615 104.608 312.199C103.425 313.11 103.285 313.607 103.62 315.706C104.243 319.602 104.65 319.95 107.173 318.747C109.814 317.487 110.667 317.467 112.88 318.612C113.831 319.103 116.021 319.616 117.746 319.751C120.973 320.003 122.349 321.093 121.671 322.86C121.167 324.174 116.721 323.932 112.996 322.388C109.912 321.109 109.738 321.098 108.982 322.132C108.315 323.043 108.383 323.671 109.416 326.157C110.986 329.936 112.948 330.472 118.107 328.535C120.029 327.813 122.748 327.204 124.148 327.18C126.116 327.147 126.9 326.823 127.601 325.752C128.101 324.99 128.509 323.961 128.509 323.466C128.509 322.574 130.239 321.322 131.473 321.322C132.55 321.322 132.177 325.117 130.912 327.027C129.625 328.97 129.367 330.948 130.281 331.862C130.595 332.176 132.605 332.469 134.748 332.513C137.72 332.575 138.727 332.379 138.992 331.688ZM295.317 241.263C295.54 238.483 295.372 236.855 294.731 235.569L293.832 233.768L296.621 233.398C299.565 233.007 304.159 230.36 303.564 229.397C303.37 229.085 302.547 228.829 301.734 228.829H300.256L301.469 226.451C302.137 225.142 302.683 223.017 302.683 221.727C302.683 218.835 304.359 216.549 307.156 215.626C308.689 215.12 309.305 214.508 309.591 213.207C309.801 212.25 310.488 211.303 311.117 211.103C312.335 210.717 314.9 207.813 314.434 207.348C314.282 207.195 313.129 207.708 311.873 208.487C309.521 209.946 309.862 209.919 299.573 209.463C297.556 209.373 297.331 209.185 296.975 207.284C296.419 204.321 293.054 199.433 289.988 197.135C281.541 190.805 278.205 188.119 276.952 186.641C275.558 184.996 274.076 184.934 274.695 186.547C275.257 188.011 271.907 187.519 267.994 185.564C263.667 183.402 260.491 180.08 258.322 175.448C257.029 172.688 256.738 171.182 256.723 167.19C256.702 161.678 255.782 159.557 254.13 161.209C252.749 162.589 252.848 170.622 254.297 174.888C256.812 182.285 261.434 187.009 274.374 195.408C286.382 203.203 291.724 210.148 292.343 218.771C292.712 223.912 291.444 227.557 288.042 231.131C284.236 235.13 281.646 236.215 275.906 236.216C270.328 236.217 266.086 234.654 262.07 231.121C257.715 227.288 254.658 225.14 254.072 225.502C253.312 225.972 261.213 237.168 263.436 238.77C266.831 241.216 270.173 241.939 279.259 242.191C286.712 242.397 288.33 242.619 290.48 243.73C291.861 244.444 293.175 245.326 293.4 245.69C294.207 246.994 295.005 245.15 295.317 241.263ZM218.921 234.427C220.504 232.844 219.234 226.406 216.036 219.8C213.303 214.153 210.537 210.977 209.271 212.028C207.922 213.147 208.196 214.718 210.491 219.043C211.647 221.222 212.593 223.417 212.593 223.922C212.593 224.427 212.921 225.748 213.323 226.859C213.896 228.443 213.896 229.129 213.323 230.046C212.268 231.736 212.426 234.078 213.644 234.787C215.252 235.723 217.798 235.55 218.921 234.427ZM123.082 227.703C124.743 226.498 126.597 223.624 126.663 222.149C126.693 221.495 127.469 221.053 129.023 220.805C131.777 220.364 136.003 217.145 140.126 212.345C143.888 207.967 150 202.89 151.224 203.126C151.75 203.227 152.339 203.984 152.534 204.808C152.728 205.632 153.146 206.302 153.461 206.296C154.327 206.281 157.888 200.029 158.585 197.298C159.696 192.947 159.707 192.937 161.16 194.745C161.891 195.653 162.764 196.397 163.101 196.397C163.828 196.397 165.465 192.75 166.066 189.79C166.685 186.743 168.3 183.823 171.723 179.557L174.742 175.796L173.451 173.634C172.741 172.445 171.981 171.262 171.761 171.006C171.541 170.749 170.48 171.831 169.403 173.409C166.731 177.325 163.202 179.778 160.16 179.835C157.872 179.878 157.721 179.765 156.926 177.412C156.468 176.054 155.436 174.326 154.633 173.572L153.173 172.2L151.058 173.813C146.355 177.401 143.293 181.453 138.985 189.79C133.134 201.116 128.784 205.64 122.616 206.814C119.995 207.313 116.999 206.021 113.681 202.962C111.347 200.812 110.757 200.555 108.516 200.718C106.323 200.877 105.963 201.101 105.811 202.405C105.67 203.609 106.266 204.389 108.793 206.309C113.157 209.625 114.157 210.165 115.982 210.189C117.54 210.21 118.637 211.581 117.965 212.667C117.779 212.968 116.36 213.211 114.81 213.207C112.411 213.202 111.46 212.801 108.401 210.504C104.403 207.503 103.24 207.252 101.482 209.009C99.9257 210.566 99.9675 211.166 101.783 213.323C102.608 214.304 103.284 215.608 103.284 216.22C103.284 216.831 103.709 217.757 104.228 218.276C105.259 219.307 108.409 219.558 108.968 218.654C109.161 218.342 110.596 217.92 112.157 217.715C113.718 217.51 116.303 216.941 117.902 216.45C120.928 215.52 122.503 215.969 122.503 217.763C122.503 218.944 117.332 221.021 114.392 221.021C109.942 221.021 109.181 223.811 113.176 225.48C114.351 225.971 115.482 226.813 115.688 227.351C116.54 229.57 120.261 229.747 123.082 227.703ZM183.868 182.737C186.599 180.484 187.25 179.662 188.506 176.877C190.885 171.6 190.394 166.852 187.003 162.35C185.167 159.911 186.014 159.309 189.442 160.619C192.628 161.835 193.505 162.783 195.763 167.444C197.719 171.482 199.547 173.046 202.469 173.183C204.273 173.268 204.467 173.065 205.822 169.67C207.259 166.072 207.47 161.14 206.306 158.409C205.612 156.781 207.056 157.131 208.784 159.009C209.619 159.918 211.156 161.997 212.199 163.63C214.717 167.574 218.238 169.495 223.103 169.58C225.687 169.625 227.174 169.33 228.359 168.536C230.627 167.016 230.429 166.367 227.697 166.367C224.944 166.367 221.915 164.503 219.965 161.609C217.338 157.711 218.405 149.274 222.267 143.406C223.565 141.434 228.257 137.538 229.334 137.538C229.651 137.538 230.293 138.686 230.761 140.09C231.229 141.494 232.009 142.72 232.495 142.815C232.982 142.909 234.298 141.707 235.425 140.138C237.201 137.665 237.473 136.812 237.493 133.66C237.506 131.664 237.273 129.526 236.976 128.91C236.499 127.922 236.606 127.85 237.877 128.299C242.529 129.941 245.605 127.892 248.96 120.916L251.049 116.574L249.841 114.594C248.379 112.195 248.213 107.05 249.518 104.528C250.007 103.583 251.123 102.245 252 101.556L253.593 100.303L252.612 96.8089C250.824 90.4375 251.416 84.9927 254.2 82.2095C256.322 80.0875 255.908 79.336 252.357 78.8597L249.934 78.5347L250.244 74.2525C250.495 70.8036 250.305 69.3088 249.269 66.5715C247.453 61.7729 246.795 61.3652 243.513 63.0044C239.838 64.84 237.573 64.9429 237.336 63.2852C237.186 62.2393 237.844 61.6806 240.939 60.2255C245.512 58.0753 249.57 54.1608 250.523 50.981C250.908 49.6941 251.092 48.5096 250.931 48.3489C250.771 48.1881 249.477 48.6182 248.056 49.3045C246.179 50.2117 244.551 50.5066 242.096 50.3844C238.02 50.1816 236.202 50.722 235.706 52.2832C235.195 53.8945 234.687 53.7488 233.491 51.6479C232.356 49.6521 231.865 49.4026 224.718 47.1908C218.599 45.2972 218.536 45.2967 216.812 47.1317C215.281 48.7613 215.397 48.8752 219.244 49.5105C221.557 49.8924 223.34 51.5336 226.034 55.7589C226.948 57.1919 228.484 58.8135 229.449 59.3625C230.414 59.9115 231.206 60.6985 231.208 61.1114C231.214 62.2529 228.697 61.983 227.007 60.6609C225.112 59.1786 224.495 59.1783 222.067 60.6585C219.69 62.1078 218.758 62.1487 216.279 60.9122C214.384 59.9668 212.593 57.3719 212.593 55.5708C212.593 55.0507 211.909 54.3651 211.073 54.0471C209.629 53.4985 209.599 53.3969 210.483 52.0486L211.414 50.628L205.982 49.8495C201.897 49.264 200.181 49.2388 199.064 49.7479C197.208 50.5935 197.21 51.0928 199.079 54.0543C200.716 56.6464 200.947 59.2456 199.933 63.6478C199.162 66.9911 199.86 67.649 204.702 68.1461C213.523 69.0515 221.628 70.7956 225.319 72.5827C229.508 74.6102 230.869 77.566 230.892 84.685C230.91 89.9785 230.776 90.6281 229.047 93.678C227.749 95.966 226.38 97.4265 224.542 98.4828C222.173 99.8449 221.256 99.999 215.596 99.9875C210.365 99.977 208.387 99.6872 204 98.2891C199.044 96.7094 198.619 96.6638 197.244 97.5649C194.824 99.1504 195.361 100.518 198.717 101.315C200.334 101.7 203.894 103.313 206.626 104.901C210.994 107.439 212.013 107.788 215.048 107.788C218.051 107.788 218.819 107.532 220.952 105.818L223.404 103.848V105.873C223.404 109.164 221.223 110.725 216.233 111.007C212.53 111.217 211.997 111.411 210.846 112.967C207.481 117.519 202.079 117.836 191.272 114.115C177.165 109.259 172.654 108.501 168.372 110.27C164.008 112.073 162.185 114.722 161.591 120.12L161.228 123.424L160.06 121.481C158.817 119.415 155.942 117.718 153.683 117.718C152.289 117.718 148.279 119.49 146.387 120.941C145.41 121.691 145.437 121.928 146.838 124.831C147.658 126.531 148.329 128.154 148.329 128.438C148.329 128.722 148.997 129.675 149.815 130.557L151.3 132.16L154.469 130.413C156.212 129.452 159.26 128.172 161.242 127.569C165.577 126.248 169.207 124.293 171.137 122.238C172.586 120.696 175.956 120.096 175.956 121.379C175.956 124.081 170.321 128.102 163.007 130.62C160.384 131.523 157.698 132.536 157.038 132.872C153.785 134.528 151.398 138.3 150.468 143.256C150.223 144.562 149.231 147.227 148.262 149.179C147.294 151.131 146.647 152.873 146.826 153.052C147.004 153.23 148.17 152.38 149.416 151.162C151.425 149.201 152.029 148.949 154.73 148.949C156.912 148.949 158.23 149.306 159.374 150.206L160.971 151.462L158.544 153.659C156.441 155.563 156.044 156.336 155.566 159.46C155.263 161.442 154.929 163.604 154.825 164.265C154.712 164.978 154.94 165.405 155.386 165.316C155.886 165.216 156.137 165.962 156.137 167.547C156.137 169.297 156.588 170.452 157.837 171.901C158.772 172.986 159.71 174.347 159.92 174.925C161.431 179.074 169.029 169.791 170.242 162.313C170.47 160.909 170.971 159.764 171.355 159.769C173.055 159.792 173.781 161.06 174.23 164.793C174.687 168.59 175.139 169.744 177.866 174.073C178.708 175.409 179.225 177.453 179.424 180.229C179.769 185.054 180.535 185.486 183.868 182.737ZM273.253 159.723C275.312 158.828 278.777 156.299 282.449 153.011C290.298 145.983 292.051 145.107 298.328 145.072C301.053 145.057 303.283 144.856 303.283 144.625C303.283 144.394 302.291 143.449 301.078 142.523C299.11 141.022 298.383 140.841 294.306 140.841C289.471 140.841 286.958 141.639 281.595 144.876C278.516 146.734 277.323 146.932 276.341 145.748C274.839 143.938 283.996 138.408 289.638 137.717C292.908 137.317 295.475 134.946 295.475 132.327C295.475 130.621 292.349 127.328 290.729 127.328C289.468 127.328 281.274 132.668 279.312 134.77C278.203 135.958 277.674 136.165 277.06 135.655C276.618 135.288 276.256 134.515 276.256 133.937C276.256 132.684 280.7 128.452 283.545 126.996C287.044 125.205 289.93 122.586 291.637 119.652C292.995 117.319 293.295 116.065 293.33 112.568C293.368 108.805 293.181 108.067 291.691 106.112C290.766 104.898 289.82 103.904 289.589 103.904C289.358 103.904 289.15 105.622 289.127 107.722C289.052 114.437 285.142 118.836 278.255 119.953C276.867 120.178 275.643 121.046 274.163 122.851C272.305 125.119 272.047 125.847 272.006 128.93C271.959 132.544 270.909 136.417 269.884 136.759C269.563 136.866 268.83 136.609 268.255 136.189C267.362 135.536 267.309 135.137 267.895 133.456C268.888 130.607 268.368 123.387 267.078 122.096C266.103 121.121 266.046 121.14 266.046 122.452C266.046 125.411 264.085 130.209 261.231 134.234C254.607 143.578 253.479 146.673 254.646 152.302C255.355 155.721 258.169 158.965 261.842 160.596C264.661 161.848 269.154 161.504 273.253 159.723ZM126.518 138.555C126.35 137.17 126.024 135.301 125.793 134.402C125.442 133.038 125.618 132.656 126.859 132.091C128.165 131.496 128.68 131.67 131.126 133.537C135.484 136.864 143.641 141.263 145.626 141.356C147.123 141.427 147.462 141.187 147.629 139.94C147.74 139.114 148.077 138.182 148.38 137.868C149.374 136.836 148.956 135.255 147.234 133.53C146.301 132.596 145.038 130.481 144.427 128.829C143.817 127.177 142.553 124.664 141.619 123.243C140.685 121.823 139.921 120.546 139.921 120.406C139.921 120.266 140.731 119.732 141.722 119.219C144.9 117.576 143.95 116.774 136.617 114.904C129.321 113.043 123.294 109.032 119.376 103.429C117.477 100.714 117.397 100.368 117.367 94.7734C117.341 89.9721 117.139 88.7293 116.223 87.7163C115.039 86.4084 112.344 86.0754 111.31 87.1092C110.585 87.8342 111.634 94.3435 112.839 96.5941C113.779 98.3509 113.295 99.7 111.725 99.7C110.013 99.7 108.67 97.3187 108.127 93.3187C107.751 90.5457 107.321 89.6028 105.922 88.4836C103.678 86.6875 101.796 86.717 100.182 88.5737C99.4712 89.3911 98.0104 90.3502 96.9358 90.7048C94.8949 91.3784 93.7599 92.9711 95.036 93.3708C95.4433 93.4983 96.7733 93.909 97.9916 94.2832C99.3947 94.7143 101.596 96.3927 103.998 98.8625C108.299 103.286 108.484 103.605 107.46 104.839C106.805 105.628 106.534 105.617 105.151 104.746C104.289 104.203 102.217 102.306 100.545 100.529C97.8163 97.627 97.252 97.2976 95.011 97.2976C93.099 97.2976 92.3594 97.5894 91.8476 98.5457C91.4802 99.2322 91.3289 100.183 91.5114 100.658C91.6938 101.134 91.3792 102.496 90.8122 103.685L89.7814 105.847L91.8554 107.578C94.2434 109.572 94.9572 109.677 96.9989 108.34C98.3655 107.444 98.5974 107.447 100.016 108.377L101.553 109.384L99.0206 111.631C96.8414 113.565 96.5456 114.108 96.9006 115.522C97.4837 117.845 102.289 120.828 105.074 120.595C106.879 120.444 107.475 119.95 109.445 116.967C111.664 113.607 112.851 112.934 114.601 114.043C115.275 114.471 115.275 114.772 114.601 115.89C113.846 117.14 114.026 117.435 117.398 120.473L121.002 123.721L120.827 130.666L120.652 137.61L122.852 140.607C125.004 143.539 125.07 143.576 125.937 142.338C126.527 141.497 126.721 140.231 126.518 138.555ZM303.111 134.007C304.906 131.882 304.947 127.862 303.198 125.406C302.138 123.918 302.059 123.507 302.748 123.07C303.207 122.779 303.9 122.537 304.286 122.532C305.511 122.516 311.714 116.425 312.927 114.046C315.048 109.89 314.18 100.901 311.658 100.901C311.346 100.901 311.091 101.942 311.091 103.215C311.091 108.038 306.018 112.237 300.13 112.288C298.561 112.301 297.277 112.398 297.277 112.503C297.277 114.639 295.619 120.252 294.508 121.877L293.04 124.024L295.441 126.126C298.236 128.574 299.308 131.026 298.789 133.788C298.586 134.871 298.585 136.023 298.786 136.348C299.285 137.155 301.436 135.991 303.111 134.007ZM225.454 93.0195C226.648 90.998 226.67 89.2548 225.513 88.2949C224.308 87.2942 222.803 87.9632 222.803 89.4999C222.803 90.1869 222.269 91.8538 221.617 93.2041C220.965 94.5544 220.565 95.8766 220.729 96.1424C221.203 96.9094 224.407 94.7918 225.454 93.0195ZM187.968 86.2795C187.968 85.8352 187.456 85.0081 186.83 84.4415C184.598 82.4214 185.01 77.8822 187.622 75.7143C188.906 74.6482 188.254 73.8741 186.072 73.8741C183.743 73.8741 180.761 76.8928 180.761 79.2508C180.761 81.8498 182.469 84.6052 184.865 85.8707C187.518 87.2725 187.968 87.3318 187.968 86.2795ZM226.66 78.9675C226.025 77.7867 224.898 76.4216 224.154 75.9341C222.879 75.0975 222.803 75.1307 222.803 76.5239C222.803 78.9025 223.884 81.0741 225.347 81.6353C227.45 82.442 227.965 81.3946 226.66 78.9675ZM221.836 56.7135C222.881 53.9908 219.169 52.366 217.108 54.6437C216.226 55.6175 216.168 55.9993 216.788 56.7458C217.801 57.967 221.363 57.9442 221.836 56.7135Z" fill="black"/>
</g>
</g>
<defs>
<clipPath id="clip0_2865_1165">
<rect width="600.598" height="400" fill="white" transform="translate(-99.9297)"/>
</clipPath>
</defs>
</svg>
